<?xml version="1.0" encoding="UTF-8"?>
<svg width="28px" height="30px" viewBox="0 0 28 30" version="1.1" xmlns="http://www.w3.org/2000/svg" xmlns:xlink="http://www.w3.org/1999/xlink">
    <!-- Generator: Sketch 55.2 (78181) - https://sketchapp.com -->
    <title>126</title>
    <desc>Created with Sketch.</desc>
    <g id="Page-1" stroke="none" stroke-width="1" fill="none" fill-rule="evenodd">
        <g id="floteo-" transform="translate(-404.000000, -257.000000)" fill-rule="nonzero">
            <g id="Dots" transform="translate(404.000000, 257.000000)">
                <g id="First-dot">
                    <g id="126">
                        <path d="M2.33333333,17.2166667 L3.45,17.2166667 L3.45,29.45 C3.45,29.754 3.69633333,30 4,30 C4.30366667,30 4.54966667,29.754 4.54966667,29.45 L4.54966667,17.2166667 L5.66666667,17.2166667 C6.889,17.2166667 7.88333333,16.222 7.88333333,14.9996667 L7.88333333,13.333 C7.88333333,12.1106667 6.889,11.1163333 5.66666667,11.1163333 L4.54966667,11.1163333 L4.54966667,0.55 C4.54966667,0.246333333 4.30366667,0 4,0 C3.69633333,0 3.45,0.246333333 3.45,0.55 L3.45,11.1166667 L2.33333333,11.1166667 C1.111,11.1166667 0.116666667,12.111 0.116666667,13.3333333 L0.116666667,15 C0.116666667,16.222 1.111,17.2166667 2.33333333,17.2166667 Z M1.21666667,13.3333333 C1.21666667,12.7176667 1.71733333,12.2166667 2.33333333,12.2166667 L5.66666667,12.2166667 C6.28233333,12.2166667 6.78333333,12.7176667 6.78333333,13.3333333 L6.78333333,15 C6.78333333,15.616 6.28233333,16.1166667 5.66666667,16.1166667 L2.33333333,16.1166667 C1.71733333,16.1166667 1.21666667,15.616 1.21666667,15 L1.21666667,13.3333333 Z" id="Shape" fill="#00D198"></path>
                        <path d="M12.3333333,23.8833333 L13.45,23.8833333 L13.45,29.45 C13.45,29.754 13.6963333,30 14,30 C14.304,30 14.55,29.754 14.55,29.45 L14.55,23.8833333 L15.6666667,23.8833333 C16.889,23.8833333 17.8833333,22.8886667 17.8833333,21.667 L17.8833333,20 C17.8833333,18.7773333 16.889,17.7833333 15.6666667,17.7833333 L14.55,17.7833333 L14.55,0.55 C14.55,0.246333333 14.304,0 14,0 C13.6963333,0 13.45,0.246333333 13.45,0.55 L13.45,17.7833333 L12.3333333,17.7833333 C11.111,17.7833333 10.1163333,18.7773333 10.1163333,20 L10.1163333,21.667 C10.1163333,22.8886667 11.111,23.8833333 12.3333333,23.8833333 Z M11.2166667,20 C11.2166667,19.384 11.7173333,18.8833333 12.3333333,18.8833333 L15.6666667,18.8833333 C16.2826667,18.8833333 16.7833333,19.384 16.7833333,20 L16.7833333,21.667 C16.7833333,22.2826667 16.2826667,22.7833333 15.6666667,22.7833333 L12.3333333,22.7833333 C11.7173333,22.7833333 11.2166667,22.2826667 11.2166667,21.667 L11.2166667,20 Z" id="Shape" fill="#FFFFFF"></path>
                        <path d="M22.3333333,12.2163333 L23.45,12.2163333 L23.45,29.4496667 C23.45,29.7536667 23.696,29.9996667 24,29.9996667 C24.304,29.9996667 24.55,29.7536667 24.55,29.4496667 L24.55,12.2163333 L25.6666667,12.2163333 C26.889,12.2163333 27.8833333,11.222 27.8833333,9.99966667 L27.8833333,8.333 C27.8833333,7.11066667 26.889,6.11633333 25.6666667,6.11633333 L24.55,6.11633333 L24.55,0.55 C24.55,0.246333333 24.304,0 24,0 C23.696,0 23.45,0.246333333 23.45,0.55 L23.45,6.11666667 L22.3333333,6.11666667 C21.111,6.11666667 20.1166667,7.111 20.1166667,8.33333333 L20.1166667,10 C20.1166667,11.2223333 21.111,12.2163333 22.3333333,12.2163333 Z M21.2166667,8.33333333 C21.2166667,7.71733333 21.7176667,7.21666667 22.3333333,7.21666667 L25.6666667,7.21666667 C26.2826667,7.21666667 26.7833333,7.71733333 26.7833333,8.33333333 L26.7833333,10 C26.7833333,10.6156667 26.2826667,11.1166667 25.6666667,11.1166667 L22.3333333,11.1166667 C21.7176667,11.1166667 21.2166667,10.6156667 21.2166667,10 L21.2166667,8.33333333 Z" id="Shape" fill="#00D198"></path>
                    </g>
                </g>
            </g>
        </g>
    </g>
</svg>