<?xml version="1.0" encoding="UTF-8"?>
<svg width="31px" height="30px" viewBox="0 0 31 30" version="1.1" xmlns="http://www.w3.org/2000/svg" xmlns:xlink="http://www.w3.org/1999/xlink">
    <!-- Generator: Sketch 55.2 (78181) - https://sketchapp.com -->
    <title>168</title>
    <desc>Created with Sketch.</desc>
    <g id="Page-1" stroke="none" stroke-width="1" fill="none" fill-rule="evenodd">
        <g id="floteo-" transform="translate(-404.000000, -311.000000)" fill-rule="nonzero">
            <g id="Dots" transform="translate(404.000000, 257.000000)">
                <g id="Second-dot" transform="translate(0.000000, 54.000000)">
                    <g id="168">
                        <path d="M2.19759341,21.6483333 L3.83446154,26.986 C4.32841758,28.5993333 6.13186813,29.912 7.85321978,29.912 L22.8057802,29.912 C24.5274725,29.912 26.3312637,28.5993333 26.8252198,26.9853333 L28.5063736,21.503 L30.5561209,14.8193333 C30.7594945,14.156 30.6613846,13.493 30.2866593,13.0003333 C29.9119341,12.5076667 29.2912527,12.2253333 28.5837033,12.2253333 L25.561033,12.2253333 C25.5371868,10.603 25.1985714,5.81533333 22.1796484,2.738 C20.4548901,0.979333333 18.1496484,0.088 15.3296703,0.088 C12.5096923,0.088 10.2041099,0.979333333 8.48003297,2.73766667 C5.46179121,5.815 5.12317582,10.6026667 5.09898901,12.225 L2.07631868,12.225 C1.36842857,12.225 0.748087912,12.5073333 0.373362637,13 C-0.00136263736,13.493 -0.0994725275,14.1556667 0.103901099,14.819 L2.19759341,21.6483333 Z M9.26593407,3.469 C10.7774396,1.92966667 12.8176484,1.14933333 15.3296703,1.14933333 C17.8416923,1.14933333 19.8815604,1.93 21.3934066,3.469 C24.1088022,6.23366667 24.4402637,10.724 24.472967,12.2253333 L6.18637363,12.2253333 C6.21907692,10.7236667 6.55053846,6.234 9.26593407,3.469 Z M1.24306593,13.6336667 C1.41373626,13.41 1.70942857,13.286 2.07597802,13.286 L28.583022,13.286 C28.9495714,13.286 29.2452637,13.41 29.4155934,13.634 C29.5862637,13.858 29.6216923,14.1703333 29.5167692,14.5143333 L27.4673626,21.198 L27.9865275,21.3503333 L27.4673626,21.1983333 L25.7865495,26.6806667 C25.4254505,27.857 24.0611099,28.851 22.8054396,28.851 L7.85321978,28.851 C6.59823077,28.851 5.23423077,27.8573333 4.87313187,26.6813333 L3.2366044,21.3433333 L1.14257143,14.514 C1.03730769,14.1703333 1.07273626,13.8576667 1.24306593,13.6336667 Z" id="Shape" fill="#00D198"></path>
                        <path d="M7.3762967,19.105 L23.2827033,19.105 C23.5828242,19.105 23.8253736,18.8673333 23.8253736,18.574 C23.8253736,18.2806667 23.5828242,18.0433333 23.2827033,18.0433333 L7.3762967,18.0433333 C7.07617582,18.0433333 6.83362637,18.2806667 6.83362637,18.574 C6.83362637,18.8673333 7.07617582,19.105 7.3762967,19.105 Z" id="Shape" fill="#FFFFFF"></path>
                        <path d="M21.5838352,23.032 L9.07550549,23.032 C8.77606593,23.032 8.53283516,23.2693333 8.53283516,23.5626667 C8.53283516,23.856 8.77606593,24.0933333 9.07550549,24.0933333 L21.5841758,24.0933333 C21.883956,24.0933333 22.1268462,23.856 22.1268462,23.5626667 C22.1268462,23.2693333 21.8836154,23.032 21.5838352,23.032 Z" id="Shape" fill="#FFFFFF"></path>
                    </g>
                </g>
            </g>
        </g>
    </g>
</svg>