<?xml version="1.0" encoding="UTF-8"?>
<svg width="30px" height="30px" viewBox="0 0 30 30" version="1.1" xmlns="http://www.w3.org/2000/svg" xmlns:xlink="http://www.w3.org/1999/xlink">
    <!-- Generator: Sketch 55.2 (78181) - https://sketchapp.com -->
    <title>24</title>
    <desc>Created with Sketch.</desc>
    <g id="Page-1" stroke="none" stroke-width="1" fill="none" fill-rule="evenodd">
        <g id="floteo-" transform="translate(-404.000000, -365.000000)" fill-rule="nonzero">
            <g id="Dots" transform="translate(404.000000, 257.000000)">
                <g id="Third-dot" transform="translate(0.000000, 108.000000)">
                    <g id="24">
                        <path d="M29.4823333,11.1183333 C28.446,7.249 25.9653333,4.01466667 22.4966667,2.012 C20.218,0.695333333 17.6306667,0 15.0136667,0 C9.66666667,0 4.686,2.874 2.01533333,7.50133333 C0.0126666667,10.9706667 -0.519333333,15.0126667 0.517333333,18.8816667 C1.554,22.751 4.035,25.986 7.50333333,27.988 C9.783,29.3046667 12.3703333,30 14.987,30 C20.3336667,30 25.314,27.126 27.9843333,22.4986667 C29.987,19.03 30.5193333,14.988 29.4823333,11.1183333 Z M27.066,21.9683333 C24.6753333,26.1106667 20.291,28.7336667 15.5306667,28.9206667 L15.5306667,25.45 C15.5306667,25.1566667 15.293,24.9196667 15,24.9196667 C14.707,24.9196667 14.4696667,25.1566667 14.4696667,25.45 L14.4696667,28.922 C12.216,28.837 10.0016667,28.206 8.03366667,27.0696667 C4.81033333,25.2076667 2.505,22.2026667 1.54166667,18.607 C1.269,17.5886667 1.11733333,16.5583333 1.076,15.5303333 L4.55266667,15.5303333 C4.84533333,15.5303333 5.083,15.293 5.083,15 C5.083,14.7066667 4.84533333,14.4693333 4.55266667,14.4693333 L1.072,14.4693333 C1.15466667,12.2293333 1.78133333,10.0286667 2.934,8.03166667 C5.32466667,3.89 9.709,1.26633333 14.4696667,1.079 L14.4696667,4.54933333 C14.4696667,4.84266667 14.707,5.08033333 15,5.08033333 C15.293,5.08033333 15.5306667,4.84266667 15.5306667,4.54933333 L15.5306667,1.078 C17.784,1.163 19.999,1.794 21.9666667,2.93066667 C25.1896667,4.79233333 27.495,7.79733333 28.4583333,11.393 C28.7306667,12.411 28.8823333,13.4416667 28.9236667,14.4693333 L25.4473333,14.4693333 C25.154,14.4693333 24.917,14.7066667 24.917,15 C24.917,15.293 25.154,15.5303333 25.4473333,15.5303333 L28.928,15.5303333 C28.8453333,17.7706667 28.2186667,19.9713333 27.066,21.9683333 Z" id="Shape" fill="#00D198"></path>
                        <path d="M16.2346667,13.9903333 C16.1803333,13.9203333 16.079,13.819 16.0086667,13.7646667 C15.2293333,13.1626667 11.037,9.92633333 8.15,7.69666667 C8.01933333,7.60466667 7.84133333,7.609 7.726,7.72433333 C7.61133333,7.839 7.607,8.018 7.703,8.14366667 C9.928,11.036 13.1636667,15.229 13.7656667,16.0093333 C13.8193333,16.0793333 13.9213333,16.1806667 13.9913333,16.235 C14.771,16.837 18.963,20.074 21.8506667,22.3036667 C21.981,22.3956667 22.159,22.391 22.2743333,22.276 C22.389,22.1606667 22.3933333,21.9823333 22.2973333,21.8563333 C20.0716667,18.9643333 16.8366667,14.7706667 16.2346667,13.9903333 Z" id="Shape" fill="#FFFFFF"></path>
                    </g>
                </g>
            </g>
        </g>
    </g>
</svg>