<?xml version="1.0" encoding="UTF-8"?>
<svg width="30px" height="30px" viewBox="0 0 30 30" version="1.1" xmlns="http://www.w3.org/2000/svg" xmlns:xlink="http://www.w3.org/1999/xlink">
    <!-- Generator: Sketch 55.2 (78181) - https://sketchapp.com -->
    <title>74</title>
    <desc>Created with Sketch.</desc>
    <g id="Page-1" stroke="none" stroke-width="1" fill="none" fill-rule="evenodd">
        <g id="floteo-" transform="translate(-404.000000, -419.000000)" fill="#00D198" fill-rule="nonzero">
            <g id="Dots" transform="translate(404.000000, 257.000000)">
                <g id="Fourth-dot" transform="translate(0.000000, 162.000000)">
                    <path d="M24.6534172,0 C23.3517392,0 22.0893949,0.574 21.0037188,1.65933333 L16.0640092,6.59933333 C13.9633243,8.69933333 13.84499,11.3786667 15.7040061,13.546 L13.5453207,15.7046667 C12.5549788,14.8636667 11.4013021,14.4053333 10.2482921,14.4053333 C8.94628074,14.4053333 7.68460311,14.979 6.59892701,16.0643333 L1.65888409,21.0036667 C0.521874215,22.141 -0.0507974273,23.4643333 0.00353637807,24.83 C0.0532034762,26.0936667 0.626208454,27.3083333 1.65888409,28.3413333 C2.72889339,29.4106667 4.0382381,30 5.3465828,30 C6.64859411,30 7.91093841,29.4266667 8.99594784,28.3413333 L13.9359908,23.4013333 C16.0366757,21.3006667 16.15501,18.622 14.2959939,16.454 L16.4546793,14.2953333 C17.4450212,15.1363333 18.5983646,15.5953333 19.7517079,15.5953333 C21.0533859,15.5953333 22.3150636,15.021 23.401073,13.9356667 L28.3411159,8.99566667 C29.4781258,7.85866667 30.0507974,6.53533333 29.9964636,5.16933333 C29.9467965,3.905 29.3737915,2.691 28.3411159,1.65866667 C27.2711066,0.589333333 25.9620952,0 24.6534172,0 Z M13.1859842,22.651 L8.24527465,27.5906667 C7.36360032,28.4726667 6.36125828,28.9393333 5.3465828,28.9393333 C4.32190723,28.9393333 3.27856483,28.46 2.40922395,27.5906667 C1.56821664,26.75 1.10287926,25.78 1.06354559,24.7876667 C1.02121189,23.725 1.4868826,22.6766667 2.40922395,21.754 L7.34893353,16.814 C8.23094119,15.932 9.23361657,15.4656667 10.2479587,15.4656667 C11.1219663,15.4656667 12.0086407,15.8166667 12.7903141,16.459 L10.0596237,19.1893333 C9.85262195,19.3966667 9.85262195,19.7326667 10.0596237,19.94 C10.2669589,20.147 10.6032951,20.147 10.8102969,19.94 L13.5403207,17.21 C14.7019974,18.6283333 15.1470013,20.6893333 13.1859842,22.651 Z M27.5904427,8.245 L22.6507331,13.186 C21.7687255,14.0683333 20.7660501,14.5343333 19.7517079,14.5343333 C18.8777004,14.5343333 17.991026,14.1833333 17.2093525,13.5413333 L19.9400429,10.811 C20.1470447,10.6036667 20.1470447,10.2676667 19.9400429,10.0603333 C19.7327078,9.853 19.3963715,9.853 19.1893697,10.0603333 L16.459346,12.79 C15.2980026,11.3716667 14.8529987,9.31066667 16.8140158,7.35 L21.7540587,2.41 C22.6360663,1.52766667 23.6387417,1.06166667 24.6530839,1.06166667 C25.6777594,1.06166667 26.7211018,1.54033333 27.5904427,2.41 C28.43145,3.25033333 28.8967874,4.21933333 28.9361211,5.21233333 C28.9787881,6.27466667 28.5131174,7.32333333 27.5904427,8.245 Z" id="74"></path>
                </g>
            </g>
        </g>
    </g>
</svg>