<?xml version="1.0" encoding="utf-8"?>
<!-- Generator: Adobe Illustrator 17.0.0, SVG Export Plug-In . SVG Version: 6.00 Build 0)  -->
<!DOCTYPE svg PUBLIC "-//W3C//DTD SVG 1.1//EN" "http://www.w3.org/Graphics/SVG/1.1/DTD/svg11.dtd">
<svg version="1.1" id="Warstwa_1" xmlns="http://www.w3.org/2000/svg" xmlns:xlink="http://www.w3.org/1999/xlink" x="0px" y="0px"
	 width="397.64px" height="243.608px" viewBox="0 0 397.64 243.608" enable-background="new 0 0 397.64 243.608"
	 xml:space="preserve">
<line fill="#BABFDB" x1="40.284" y1="231.839" x2="116.08" y2="231.839"/>
<line fill="#BABFDB" x1="14.284" y1="231.839" x2="26.284" y2="231.839"/>
<line fill="#BABFDB" x1="2.5" y1="211.307" x2="86.587" y2="211.307"/>
<circle fill="#B8C5F4" cx="351.416" cy="219.559" r="21.55"/>
<circle fill="#B8C5F4" cx="168.576" cy="219.559" r="21.55"/>
<polyline fill="#B8C5F4" points="144.523,30.953 161.235,48.43 121.367,48.43 121.367,19.485 144.523,19.485 "/>
<polyline fill="#FFFFFF" points="141.701,109.203 165.909,102.14 183.501,120.682 203.034,102.14 225.302,108.524 "/>
<g>
	<rect x="144.523" y="2.5" fill="#B8C5F4" width="38.011" height="28.017"/>
	<g>
		<path fill="#212D61" d="M116.081,229.339H40.284c-1.381,0-2.5,1.119-2.5,2.5s1.119,2.5,2.5,2.5h75.797c1.381,0,2.5-1.119,2.5-2.5
			S117.461,229.339,116.081,229.339z"/>
		<path fill="#212D61" d="M26.284,229.339h-12c-1.381,0-2.5,1.119-2.5,2.5s1.119,2.5,2.5,2.5h12c1.381,0,2.5-1.119,2.5-2.5
			S27.665,229.339,26.284,229.339z"/>
		<path fill="#212D61" d="M351.416,205.172c-1.819,0-3.593,0.336-5.272,0.998c-1.284,0.506-1.915,1.958-1.409,3.243
			c0.508,1.284,1.957,1.915,3.243,1.409c1.093-0.431,2.25-0.649,3.438-0.649c5.176,0,9.387,4.21,9.387,9.386
			c0,0.93-0.136,1.848-0.402,2.73c-0.4,1.321,0.347,2.717,1.668,3.117c0.241,0.073,0.485,0.108,0.726,0.108
			c1.073,0,2.064-0.696,2.392-1.776c0.409-1.352,0.617-2.758,0.617-4.179C365.802,211.626,359.348,205.172,351.416,205.172z"/>
		<path fill="#212D61" d="M168.577,205.172c-1.819,0-3.594,0.336-5.273,0.998c-1.284,0.506-1.915,1.958-1.409,3.243
			c0.507,1.284,1.958,1.915,3.243,1.409c1.093-0.431,2.25-0.649,3.439-0.649c5.176,0,9.386,4.21,9.386,9.386
			c0,0.93-0.136,1.848-0.402,2.73c-0.4,1.321,0.347,2.717,1.668,3.117c0.241,0.073,0.485,0.108,0.726,0.108
			c1.073,0,2.064-0.696,2.392-1.776c0.409-1.352,0.617-2.758,0.617-4.179C182.962,211.626,176.509,205.172,168.577,205.172z"/>
		<path fill="#212D61" d="M397.187,207.176c-0.046-0.227-0.11-0.433-0.16-0.656c-0.023-0.161-0.062-0.316-0.114-0.466
			c-1.541-6.44-4.704-11.007-9.687-13.886c-10.343-5.976-30.754-13.612-69.313-16.141c-4.878-2.791-40.305-22.703-63.025-25.79
			c-24.378-3.313-35.27-2.795-53.728,0.321c-6.924,1.169-16.163,4.269-25.943,7.55c-19.244,6.456-41.051,13.776-55.989,10.836
			c-0.652-0.128-1.325,0.008-1.877,0.378c-0.551,0.37-0.932,0.944-1.059,1.595l-6.046,30.873
			c-1.513,6.962-0.254,21.198,15.29,25.227c0.224,0.064,5.597,1.564,14.949,2.057c1.405,0.082,2.557-0.987,2.628-2.365
			c0.073-1.379-0.985-2.555-2.364-2.628c-8.734-0.46-13.801-1.86-13.903-1.888c-14.809-3.839-11.845-18.715-11.703-19.39
			l2.331-11.902c0.591,0.035,1.185,0.061,1.78,0.061c8.291,0,16.716-3.153,17.129-3.31c1.29-0.489,1.939-1.932,1.45-3.222
			c-0.487-1.29-1.927-1.943-3.222-1.453c-0.095,0.036-8.607,3.21-16.168,2.972l2.291-11.698c15.988,2.048,37.227-5.079,56.072-11.4
			c9.59-3.217,18.648-6.256,25.186-7.359c18.204-3.074,28.304-3.546,52.222-0.298c22.942,3.117,61.318,25.232,61.704,25.456
			c0.334,0.193,0.708,0.307,1.094,0.332c29.625,1.895,53.673,7.405,67.712,15.518c2.927,1.691,5.037,4.224,6.396,7.673
			c-4.753-0.505-13.198-2.223-16.955-8.093c-0.744-1.165-2.293-1.5-3.453-0.758c-1.163,0.744-1.502,2.29-0.758,3.453
			c5.499,8.592,17.561,10.232,22.494,10.54c0.374,3.597,0.112,10.728-0.108,14.781c-6.562,2.214-13.903,3.505-18.51,4.164
			c1.052-2.7,1.635-5.632,1.635-8.7c0-13.261-10.789-24.05-24.05-24.05s-24.05,10.789-24.05,24.05s10.789,24.05,24.05,24.05
			c7.985,0,15.07-3.916,19.447-9.924c3.644-0.406,15.098-1.892,24.738-5.438c0.928-0.341,1.566-1.197,1.632-2.183
			C397.326,224.619,398.128,211.818,397.187,207.176z M351.416,238.608c-10.504,0-19.05-8.546-19.05-19.05s8.546-19.05,19.05-19.05
			s19.05,8.546,19.05,19.05S361.919,238.608,351.416,238.608z"/>
		<path fill="#212D61" d="M322.84,226.552H191.585c0.674-2.214,1.04-4.562,1.04-6.993c0-13.261-10.788-24.05-24.049-24.05
			s-24.05,10.789-24.05,24.05s10.789,24.05,24.05,24.05c8.895,0,16.672-4.858,20.832-12.057H322.84c1.381,0,2.5-1.119,2.5-2.5
			S324.221,226.552,322.84,226.552z M168.577,238.608c-10.504,0-19.05-8.546-19.05-19.05s8.546-19.05,19.05-19.05
			s19.049,8.546,19.049,19.05S179.081,238.608,168.577,238.608z"/>
		<path fill="#212D61" d="M303.335,188.23c0.437-0.686,0.512-1.542,0.202-2.293c-1.015-2.465-26.253-22.622-66.528-27.56
			c-0.092-0.009-2.293-0.217-6.142-0.217c-11.792,0-35.445,1.867-61.379,14.369c-0.865,0.417-1.415,1.294-1.414,2.255
			c0.001,0.961,0.554,1.837,1.421,2.251c0.661,0.316,16.667,7.777,58.98,10.772c22.392,1.585,41.362,1.917,53.334,1.917
			c0.002,0,0.001,0,0.003,0c12.161,0,19.458-0.336,19.53-0.34C302.156,189.347,302.899,188.917,303.335,188.23z M281.813,184.725
			c-0.001,0-0.002,0-0.003,0c-11.891,0-30.735-0.331-52.98-1.905c-27.687-1.96-43.929-5.91-51.641-8.307
			c22.827-9.809,43.156-11.354,53.679-11.354c3.532,0,5.588,0.187,5.599,0.187c0,0,0,0-0.001,0
			c29.665,3.638,49.318,15.164,57.896,21.25C291.169,184.666,286.929,184.725,281.813,184.725z"/>
		<path fill="#212D61" d="M216.624,215.58c-1.381,0-2.5,1.119-2.5,2.5s1.119,2.5,2.5,2.5h74.216c1.381,0,2.5-1.119,2.5-2.5
			s-1.119-2.5-2.5-2.5H216.624z"/>
		<path fill="#212D61" d="M86.587,213.807h14.696c1.381,0,2.5-1.119,2.5-2.5s-1.119-2.5-2.5-2.5H86.587H70.915
			c8.768-12.409,40.184-54.588,72.28-97.436l21.951-6.404l16.543,17.435c0.456,0.481,1.085,0.761,1.748,0.778
			c0.021,0,0.044,0.001,0.065,0.001c0.64,0,1.256-0.245,1.721-0.687l18.496-17.558l20.134,5.772l25.653,31.833
			c0.864,1.074,2.438,1.244,3.515,0.378c1.075-0.867,1.244-2.44,0.378-3.516l-19.341-24.002l24.264-21.647l62.574,77.62
			c0.494,0.613,1.218,0.931,1.948,0.931c0.551,0,1.104-0.181,1.567-0.554c1.074-0.867,1.243-2.44,0.377-3.515l-64.224-79.667
			c-0.43-0.533-1.06-0.867-1.741-0.923c-0.689-0.05-1.357,0.17-1.869,0.626l-26.038,23.23L184.97,54.49
			c0.039-0.176,0.064-0.357,0.064-0.545V30.517V2.5c0-1.381-1.119-2.5-2.5-2.5h-38.011c-1.381,0-2.5,1.119-2.5,2.5v14.485h-20.656
			c-1.381,0-2.5,1.119-2.5,2.5V48.43c0,1.381,1.119,2.5,2.5,2.5h39.868c0.227,0,0.443-0.04,0.651-0.097
			c0.051-0.014,0.1-0.03,0.151-0.047c0.193-0.066,0.378-0.148,0.546-0.257c0.011-0.007,0.024-0.012,0.035-0.019
			c0.178-0.119,0.334-0.265,0.476-0.424c0.034-0.038,0.066-0.077,0.098-0.118c0.134-0.17,0.253-0.351,0.339-0.552
			c0.001-0.001,0.002-0.002,0.002-0.004c0,0,0-0.001,0-0.001c0.084-0.197,0.134-0.41,0.166-0.63
			c0.008-0.058,0.013-0.115,0.017-0.173c0.004-0.06,0.018-0.117,0.018-0.178V33.017h16.299v20.929c0,0.008,0.002,0.016,0.002,0.024
			c-2.797,3.718-30.435,40.464-57.754,77.008c-42.637,57.033-54.195,72.909-57.329,77.83H2.5c-1.381,0-2.5,1.119-2.5,2.5
			s1.119,2.5,2.5,2.5h63.784H86.587z M203.722,99.737c-0.847-0.243-1.767-0.02-2.409,0.59l-17.719,16.82l-15.872-16.728
			c-0.644-0.679-1.616-0.942-2.514-0.679l-17.02,4.965c11.814-15.763,23.567-31.412,34.162-45.497l36.05,44.736L203.722,99.737z
			 M123.867,45.93V21.985h18.156v8.532c0,0.072,0.015,0.14,0.021,0.21c-0.063,0.695,0.152,1.411,0.672,1.955l12.669,13.248H123.867z
			 M158.735,42.198l-8.78-9.182h8.78V42.198z M147.023,28.017V5h33.011v23.017H147.023z"/>
	</g>
</g>
</svg>
