<?xml version="1.0" encoding="utf-8"?>
<!-- Generator: Adobe Illustrator 17.0.0, SVG Export Plug-In . SVG Version: 6.00 Build 0)  -->
<!DOCTYPE svg PUBLIC "-//W3C//DTD SVG 1.1//EN" "http://www.w3.org/Graphics/SVG/1.1/DTD/svg11.dtd">
<svg version="1.1" id="Warstwa_1" xmlns="http://www.w3.org/2000/svg" xmlns:xlink="http://www.w3.org/1999/xlink" x="0px" y="0px"
	 width="435.606px" height="226.887px" viewBox="0 0 435.606 226.887" enable-background="new 0 0 435.606 226.887"
	 xml:space="preserve">
<g>
	<line fill="#BABFDB" x1="349.389" y1="92.777" x2="424.536" y2="92.777"/>
</g>
<g>
	<circle fill="#B8C5F4" cx="98.26" cy="157.433" r="21.55"/>
</g>
<path fill="#FFFFFF" d="M198.152,205.826c0,0-3.167,0.299-4.583,0c-1.416-0.299-18.923-8.151-18.923-8.151s-5.535-2.06-5.793-7.337
	c-0.257-5.278-0.901-15.19-0.901-15.19s-0.129-4.377,2.317-7.981c2.446-3.604,9.912-12.229,18.022-13.516
	c8.11-1.287,50.074-5.793,50.074-5.793l36.172-17.249c0,0,17.647-9.612,48.572-9.612c18.196,0,55.459,1.299,89.414,11.843
	l0.601,4.849c0,0,0.515,5.02,2.961,6.694c2.446,1.673,11.328,10.684,11.328,10.684s2.446,2.335,2.446,8.376v12.956l3.218,3.254
	v10.813c0,0,0.915,10.555-11.9,11.843"/>
<path fill="#FFFFFF" d="M402.586,140.631c-31.145-8.805-65.616-9.6-79.689-9.606c-22.546-0.01-38.879,6.067-43.845,8.699
	l-33.487,15.969l141.042-3.758C386.608,151.934,398.657,151.076,402.586,140.631z"/>
<g>
	<line fill="#FFFFFF" x1="253.426" y1="205.958" x2="373.188" y2="205.958"/>
</g>
<g>
	<circle fill="#B8C5F4" cx="221.522" cy="200.393" r="23.994"/>
</g>
<g>
	<circle fill="#B8C5F4" cx="397.183" cy="200.393" r="23.994"/>
</g>
<g>
	<line fill="#BABFDB" x1="69.308" y1="221.885" x2="144.454" y2="221.885"/>
</g>
<g>
	<line fill="#BABFDB" x1="2.5" y1="205.37" x2="77.647" y2="205.37"/>
</g>
<g>
	<polygon fill="#B8C5F4" points="251.07,2.5 260.057,20.711 280.153,23.631 265.612,37.805 269.044,57.821 251.07,48.371 
		233.095,57.821 236.528,37.805 221.986,23.631 242.082,20.711 	"/>
</g>
<g>
	<polygon fill="#B8C5F4" points="324.198,9.237 330.997,23.012 346.198,25.221 335.198,35.943 337.795,51.084 324.198,43.936 
		310.601,51.084 313.198,35.943 302.198,25.221 317.4,23.012 	"/>
</g>
<g>
	<g>
		<polygon fill="#B8C5F4" points="177.22,9.237 184.019,23.012 199.221,25.221 188.221,35.943 190.817,51.084 177.22,43.936 
			163.624,51.084 166.22,35.943 155.22,25.221 170.422,23.012 		"/>
	</g>
	<g>
		<path fill="#212D61" d="M346.889,92.777c0,1.381,1.119,2.5,2.5,2.5h75.146c1.381,0,2.5-1.119,2.5-2.5s-1.119-2.5-2.5-2.5h-75.146
			C348.008,90.277,346.889,91.396,346.889,92.777z"/>
		<path fill="#212D61" d="M86.882,163.388c0.24,0,0.484-0.035,0.726-0.108c1.321-0.4,2.068-1.796,1.668-3.117
			c-0.267-0.881-0.402-1.8-0.402-2.729c0-5.176,4.211-9.386,9.387-9.386c1.188,0,2.346,0.219,3.438,0.649
			c1.284,0.507,2.737-0.125,3.243-1.409c0.506-1.285-0.125-2.736-1.409-3.243c-1.68-0.662-3.453-0.998-5.272-0.998
			c-7.933,0-14.387,6.454-14.387,14.386c0,1.421,0.208,2.827,0.617,4.179C84.817,162.692,85.809,163.388,86.882,163.388z"/>
		<path fill="#212D61" d="M221.199,125.682c42.313-2.995,58.319-10.456,58.98-10.772c0.867-0.415,1.42-1.29,1.421-2.251
			c0.001-0.961-0.549-1.838-1.414-2.255c-25.934-12.502-49.587-14.369-61.379-14.369c-3.849,0-6.05,0.208-6.207,0.224
			c-40.209,4.931-65.448,25.087-66.463,27.553c-0.31,0.752-0.234,1.607,0.202,2.293c0.437,0.687,1.18,1.117,1.992,1.155
			c0.072,0.003,7.369,0.34,19.533,0.34C179.837,127.599,198.807,127.267,221.199,125.682z M213.144,101.228
			c0.02-0.002,2.083-0.194,5.664-0.194c10.525,0,30.86,1.545,53.695,11.361c-7.676,2.395-23.861,6.332-51.657,8.299
			c-22.246,1.574-41.09,1.905-52.98,1.905c-5.118,0-9.36-0.06-12.552-0.129C163.887,116.385,183.527,104.86,213.144,101.228z"/>
		<path fill="#212D61" d="M435.577,190.366v-10.713c0-0.658-0.26-1.29-0.723-1.758l-2.496-2.524v-11.929
			c0-6.911-2.89-9.87-3.165-10.131c-0.927-0.94-9.126-9.234-11.696-10.992c-0.959-0.657-1.712-3.263-1.892-4.938l-0.601-4.849
			c-0.121-0.975-0.802-1.789-1.74-2.081c-27.975-8.687-58.638-11.201-79.229-11.794c0.649-0.568,0.994-1.449,0.816-2.357
			l-1.471-7.509c-0.127-0.651-0.508-1.225-1.059-1.595c-0.552-0.37-1.227-0.506-1.877-0.378
			c-14.935,2.939-36.742-4.38-55.988-10.836c-9.781-3.281-19.02-6.38-25.943-7.549c-18.459-3.116-29.35-3.635-53.728-0.321
			c-22.721,3.087-58.147,22.999-63.025,25.79c-38.559,2.529-58.97,10.165-69.313,16.141c-4.98,2.877-8.141,7.439-9.684,13.872
			c-0.057,0.159-0.097,0.325-0.122,0.498c-0.048,0.217-0.111,0.416-0.156,0.637c-0.941,4.643-0.139,17.444-0.045,18.889
			c0.065,0.986,0.704,1.842,1.632,2.183c9.64,3.546,21.094,5.032,24.738,5.438c4.377,6.008,11.461,9.924,19.447,9.924
			c8.895,0,16.672-4.858,20.833-12.057h41.009c1.381,0,2.5-1.119,2.5-2.5s-1.119-2.5-2.5-2.5H121.27
			c0.674-2.214,1.04-4.562,1.04-6.993c0-13.261-10.789-24.05-24.05-24.05s-24.05,10.789-24.05,24.05c0,3.068,0.583,6,1.635,8.701
			c-4.604-0.658-11.941-1.949-18.51-4.165c-0.221-4.052-0.483-11.182-0.108-14.781c4.934-0.309,16.996-1.949,22.494-10.54
			c0.744-1.163,0.405-2.709-0.758-3.453c-1.161-0.744-2.709-0.406-3.453,0.758c-3.762,5.876-12.205,7.591-16.956,8.094
			c1.36-3.45,3.469-5.983,6.398-7.674c14.039-8.112,38.087-13.623,67.712-15.518c0.386-0.025,0.76-0.139,1.095-0.332
			c0.385-0.223,38.75-22.337,61.703-25.456c23.918-3.249,34.019-2.775,52.222,0.298c6.537,1.104,15.596,4.142,25.186,7.359
			c18.845,6.322,40.077,13.449,56.071,11.4l1.007,5.138c0.102,0.521,0.361,0.97,0.716,1.313c-2.743-0.055-5.278-0.078-7.553-0.078
			c-30.586,0-48.314,9.139-49.704,9.882l-35.731,17.039c-4.676,0.503-42.04,4.536-49.774,5.763
			c-2.272,0.361-4.438,1.189-6.449,2.273h-22.615c-1.381,0-2.5,1.119-2.5,2.5s1.119,2.5,2.5,2.5h15.774
			c-3.811,3.529-6.223,7.035-6.409,7.309c-2.763,4.069-2.758,8.865-2.746,9.482c0,0.003,0,0.007,0,0.01
			c0,0.002,0.001,0.004,0.001,0.007c0,0.015,0.001,0.04,0.001,0.048c0.007,0.099,0.646,9.952,0.899,15.149
			c0.315,6.488,6.435,9.167,7.32,9.521c6.637,2.977,17.919,7.984,19.375,8.292c0.668,0.141,1.54,0.186,2.391,0.186
			c0.286,0,0.568-0.006,0.84-0.014c3.416,10.684,13.437,18.443,25.24,18.443c14.609,0,26.494-11.885,26.494-26.494
			s-11.885-26.494-26.494-26.494s-26.494,11.885-26.494,26.494c0,1.039,0.067,2.061,0.184,3.069
			c-0.463-0.002-0.844-0.022-1.05-0.064c-1.183-0.342-10.411-4.379-18.493-8.004c-0.05-0.022-0.101-0.043-0.151-0.062
			c-0.04-0.015-3.995-1.583-4.167-5.116c-0.177-3.627-0.539-9.484-0.746-12.748c6.348-0.557,23.021-2.734,33.998-10.678
			c0.593-0.429,0.968-1.097,1.026-1.827c0.059-0.729-0.206-1.448-0.724-1.966c-0.185-0.184-4.615-4.509-14.119-4.509
			c-0.003,0-0.005,0-0.008,0c-1.38,0-2.499,1.12-2.499,2.5s1.119,2.5,2.5,2.5c-0.001,0,0.003,0,0.007,0
			c3.392,0,5.896,0.637,7.613,1.329c-9.44,5.287-22.029,7.054-27.64,7.604c0.256-1.183,0.724-2.59,1.579-3.851
			c2.084-3.072,9.083-11.298,16.344-12.451c7.955-1.263,49.53-5.731,49.949-5.776c0.281-0.03,0.555-0.108,0.81-0.229l36.172-17.249
			c0.04-0.019,0.08-0.04,0.119-0.061c0.171-0.093,17.436-9.307,47.377-9.307c18.713,0,54.661,1.476,87.133,11.259l0.395,3.188
			c0.106,1.031,0.799,6.286,4.037,8.502c1.636,1.119,7.59,6.958,10.963,10.379c0.07,0.075,1.722,1.903,1.722,6.618v0.838h-7.348
			c-1.092-2.915-2.747-7.27-2.747-7.27l-4.674,1.775c0,0,2.438,6.42,3.338,8.859c0.362,0.982,1.299,1.635,2.346,1.635h9.085v7.118
			c0,0.658,0.26,1.29,0.723,1.758l2.496,2.524v9.786c0,0.059,0.004,0.138,0.008,0.197c0.053,0.747,0.237,6.734-6.935,8.668
			c-0.56-14.118-12.214-25.433-26.467-25.433c-14.609,0-26.494,11.885-26.494,26.494c0,1.037,0.066,2.059,0.183,3.065H253.426
			c-1.381,0-2.5,1.119-2.5,2.5s1.119,2.5,2.5,2.5h118.522c3.42,10.677,13.437,18.429,25.235,18.429
			c13.207,0,24.185-9.714,26.171-22.371C433.667,202.619,435.896,194.645,435.577,190.366z M98.26,138.383
			c10.504,0,19.05,8.546,19.05,19.05s-8.546,19.05-19.05,19.05s-19.05-8.546-19.05-19.05S87.756,138.383,98.26,138.383z
			 M221.522,178.899c11.852,0,21.494,9.642,21.494,21.494s-9.643,21.494-21.494,21.494s-21.494-9.642-21.494-21.494
			S209.671,178.899,221.522,178.899z M397.183,221.887c-11.852,0-21.494-9.642-21.494-21.494s9.643-21.494,21.494-21.494
			s21.494,9.642,21.494,21.494S409.034,221.887,397.183,221.887z"/>
		<path fill="#212D61" d="M386.785,154.428c0.558-0.04,13.698-1.108,18.141-12.917c0.246-0.655,0.207-1.383-0.108-2.007
			s-0.878-1.088-1.552-1.279c-29.798-8.424-63.143-9.693-80.423-9.701c-22.091,0-39.004,5.848-44.913,8.964l-33.44,15.947
			c-1.065,0.508-1.631,1.692-1.354,2.84c0.271,1.126,1.277,1.916,2.43,1.916c0.022,0,0.045,0,0.067-0.001l141.042-3.758
			C386.711,154.432,386.748,154.43,386.785,154.428z M257.271,152.879l22.857-10.9c0.032-0.015,0.063-0.031,0.095-0.047
			c5.485-2.908,21.451-8.408,42.673-8.408c16.408,0.007,47.648,1.172,76.115,8.72c-3.962,6.291-11.792,7.127-12.538,7.192
			L257.271,152.879z"/>
		<path fill="#212D61" d="M208.854,206.74c0.24,0,0.484-0.035,0.727-0.108c1.321-0.401,2.067-1.797,1.667-3.118
			c-0.306-1.006-0.46-2.056-0.46-3.121c0-5.919,4.815-10.734,10.734-10.734c1.359,0,2.683,0.25,3.935,0.743
			c1.284,0.504,2.736-0.126,3.242-1.41c0.506-1.285-0.125-2.736-1.41-3.243c-1.837-0.724-3.777-1.091-5.767-1.091
			c-8.676,0-15.734,7.059-15.734,15.734c0,1.557,0.228,3.095,0.675,4.572C206.79,206.044,207.782,206.74,208.854,206.74z"/>
		<path fill="#212D61" d="M409.124,194.154c-1.321,0.401-2.067,1.797-1.667,3.118c0.306,1.006,0.46,2.056,0.46,3.121
			c0,5.919-4.815,10.734-10.734,10.734c-1.359,0-2.683-0.25-3.935-0.743c-1.284-0.505-2.736,0.125-3.242,1.41
			c-0.506,1.285,0.125,2.736,1.41,3.243c1.837,0.724,3.777,1.091,5.767,1.091c8.676,0,15.734-7.059,15.734-15.734
			c0-1.557-0.228-3.095-0.675-4.572C411.842,194.5,410.446,193.755,409.124,194.154z"/>
		<path fill="#212D61" d="M400.459,190.402c1.285,0.504,2.736-0.126,3.242-1.41c0.506-1.285-0.125-2.736-1.41-3.243
			c-1.837-0.724-3.777-1.091-5.767-1.091c-4.334,0-8.371,1.725-11.368,4.856c-0.955,0.998-0.921,2.58,0.077,3.535
			c0.484,0.463,1.106,0.694,1.729,0.694c0.658,0,1.315-0.258,1.806-0.771c2.045-2.136,4.8-3.313,7.757-3.313
			C397.884,189.659,399.207,189.909,400.459,190.402z"/>
		<path fill="#212D61" d="M185.218,192.735c-1.093,0.844-1.294,2.415-0.45,3.507c0.493,0.638,1.232,0.972,1.98,0.972
			c0.533,0,1.071-0.17,1.526-0.521c3.399-2.626,5.196-8.977,5.391-9.692c0.186-0.686,0.071-1.418-0.316-2.015
			c-0.387-0.596-1.009-1-1.711-1.109c-4.344-0.678-14.162-0.051-14.579-0.024c-1.378,0.089-2.422,1.279-2.333,2.657
			c0.09,1.377,1.253,2.428,2.657,2.333c2.013-0.131,6.827-0.356,10.438-0.253C187.127,190.241,186.195,191.98,185.218,192.735z"/>
		<path fill="#212D61" d="M144.454,219.385H69.308c-1.381,0-2.5,1.119-2.5,2.5s1.119,2.5,2.5,2.5h75.146c1.381,0,2.5-1.119,2.5-2.5
			S145.835,219.385,144.454,219.385z"/>
		<path fill="#212D61" d="M80.147,205.37c0-1.381-1.119-2.5-2.5-2.5H2.5c-1.381,0-2.5,1.119-2.5,2.5s1.119,2.5,2.5,2.5h75.147
			C79.028,207.87,80.147,206.751,80.147,205.37z"/>
		<path fill="#212D61" d="M233.842,38.678l-3.211,18.719c-0.161,0.938,0.225,1.886,0.994,2.445c0.77,0.56,1.792,0.633,2.633,0.19
			l16.812-8.838l16.813,8.838c0.365,0.192,0.765,0.287,1.163,0.287c0.519,0,1.034-0.161,1.47-0.478
			c0.77-0.56,1.155-1.507,0.994-2.445l-3.211-18.719l13.601-13.257c0.682-0.664,0.927-1.658,0.633-2.563
			c-0.294-0.905-1.077-1.564-2.019-1.702l-18.796-2.731l-8.405-17.032C252.89,0.54,252.021,0,251.069,0s-1.82,0.54-2.242,1.394
			l-8.405,17.032l-18.795,2.731c-0.941,0.137-1.725,0.796-2.019,1.702c-0.294,0.905-0.049,1.898,0.633,2.563L233.842,38.678z
			 M242.441,23.185c0.814-0.119,1.519-0.63,1.883-1.368l6.745-13.668l6.745,13.668c0.364,0.738,1.068,1.249,1.883,1.368
			l15.084,2.192l-10.915,10.639c-0.589,0.574-0.858,1.402-0.719,2.213l2.577,15.022l-13.492-7.093
			c-0.364-0.191-0.764-0.287-1.163-0.287s-0.799,0.096-1.163,0.287l-13.491,7.092l2.577-15.021c0.14-0.811-0.13-1.639-0.719-2.213
			l-10.915-10.639L242.441,23.185z"/>
		<path fill="#212D61" d="M310.512,36.816l-2.374,13.845c-0.161,0.938,0.225,1.886,0.994,2.445c0.771,0.56,1.792,0.633,2.633,0.19
			l12.434-6.537l12.434,6.537c0.365,0.192,0.765,0.287,1.163,0.287c0.518,0,1.034-0.161,1.47-0.478
			c0.77-0.559,1.155-1.507,0.994-2.445l-2.374-13.845l10.059-9.805c0.682-0.664,0.927-1.658,0.633-2.563
			c-0.294-0.905-1.077-1.565-2.019-1.702l-13.9-2.02L326.44,8.13c-0.422-0.854-1.291-1.394-2.242-1.394s-1.82,0.54-2.242,1.394
			l-6.217,12.597l-13.9,2.02c-0.941,0.137-1.725,0.796-2.019,1.702c-0.294,0.905-0.049,1.898,0.633,2.563L310.512,36.816z
			 M317.759,25.486c0.814-0.119,1.519-0.63,1.883-1.368l4.557-9.233l4.557,9.233c0.364,0.738,1.068,1.249,1.883,1.368l10.188,1.48
			l-7.373,7.187c-0.589,0.574-0.858,1.402-0.719,2.212l1.74,10.148l-9.113-4.791c-0.364-0.191-0.764-0.287-1.163-0.287
			s-0.799,0.096-1.163,0.287l-9.113,4.791l1.74-10.148c0.14-0.811-0.13-1.638-0.719-2.212l-7.373-7.187L317.759,25.486z"/>
		<path fill="#212D61" d="M163.534,36.816l-2.374,13.845c-0.161,0.938,0.225,1.886,0.994,2.445c0.771,0.56,1.792,0.633,2.633,0.19
			l12.434-6.537l12.434,6.537c0.365,0.192,0.765,0.287,1.163,0.287c0.518,0,1.034-0.161,1.47-0.478
			c0.77-0.559,1.155-1.507,0.994-2.445l-2.374-13.845l10.059-9.805c0.682-0.664,0.927-1.658,0.633-2.563
			c-0.294-0.905-1.077-1.565-2.019-1.702l-13.901-2.02L179.463,8.13c-0.422-0.853-1.29-1.394-2.242-1.394
			c-0.951,0-1.82,0.54-2.242,1.394l-6.217,12.597l-13.9,2.02c-0.941,0.137-1.725,0.796-2.019,1.702
			c-0.294,0.905-0.049,1.898,0.633,2.563L163.534,36.816z M170.781,25.486c0.814-0.119,1.519-0.63,1.883-1.368l4.557-9.233
			l4.556,9.233c0.364,0.738,1.068,1.249,1.883,1.368l10.189,1.48l-7.373,7.187c-0.589,0.574-0.858,1.402-0.719,2.212l1.74,10.148
			l-9.113-4.791c-0.364-0.191-0.764-0.287-1.163-0.287s-0.799,0.096-1.163,0.287l-9.113,4.791l1.74-10.148
			c0.14-0.811-0.13-1.638-0.719-2.212l-7.373-7.187L170.781,25.486z"/>
	</g>
</g>
</svg>
