<?xml version="1.0" encoding="utf-8"?>
<!-- Generator: Adobe Illustrator 17.0.0, SVG Export Plug-In . SVG Version: 6.00 Build 0)  -->
<!DOCTYPE svg PUBLIC "-//W3C//DTD SVG 1.1//EN" "http://www.w3.org/Graphics/SVG/1.1/DTD/svg11.dtd">
<svg version="1.1" id="Warstwa_1" xmlns="http://www.w3.org/2000/svg" xmlns:xlink="http://www.w3.org/1999/xlink" x="0px" y="0px"
	 width="277.551px" height="178.848px" viewBox="0 0 277.551 178.848" enable-background="new 0 0 277.551 178.848"
	 xml:space="preserve">
<circle fill="#B8C5F4" cx="204.71" cy="106.007" r="70.341"/>
<g>
	<path fill="#212D61" d="M204.71,33.166c-40.165,0-72.841,32.676-72.841,72.841c0,40.165,32.676,72.841,72.841,72.841
		s72.841-32.676,72.841-72.841C277.551,65.842,244.875,33.166,204.71,33.166z M204.71,173.848
		c-37.408,0-67.841-30.434-67.841-67.841s30.433-67.841,67.841-67.841s67.841,30.433,67.841,67.841S242.118,173.848,204.71,173.848z
		"/>
	<path fill="#212D61" d="M56.667,26.581c0.094-0.14,0.174-0.289,0.239-0.445l0.215-0.52c0.54-1.066,4.216-7.766,11.363-7.766h41.51
		h1.639h41.51c7.146,0,10.822,6.699,11.362,7.766l0.215,0.52c0.064,0.156,0.145,0.305,0.239,0.445l3.073,5.526
		c0.456,0.827,1.31,1.294,2.192,1.294c0.408,0,0.822-0.1,1.204-0.311c1.209-0.666,1.649-2.187,0.983-3.396l-2.981-5.41
		c-0.037-0.066-0.076-0.131-0.118-0.194l-0.22-0.468c-0.021-0.051-0.043-0.101-0.068-0.15c-0.875-1.773-5.752-10.622-15.881-10.622
		h-41.51h-1.639h-41.51c-10.129,0-15.006,8.849-15.881,10.622c-0.024,0.049-0.047,0.1-0.068,0.15l-0.152,0.368l-0.068,0.1
		c-0.042,0.063-0.082,0.127-0.118,0.194L37.355,51.217c-0.427,0.774-0.413,1.717,0.037,2.478s1.268,1.229,2.152,1.229h70.449h1.639
		h22.833c1.381,0,2.5-1.119,2.5-2.5s-1.119-2.5-2.5-2.5h-22.833h-1.639H43.776L56.52,26.797L56.667,26.581z"/>
	<path fill="#212D61" d="M134.465,141.704H81.508H31.882c-0.044,0-0.091,0.001-0.136,0.004c-0.121,0.007-12.123,0.587-18.479-4.347
		C4.999,130.939,5,123.833,5,114.836v-35.44c0-0.082,0.064-8.238,5.612-13.563c6.086-5.843,15.556-11.424,15.651-11.48
		c0.388-0.228,0.708-0.556,0.925-0.95L45.32,20.496c0.034-0.062,0.066-0.125,0.095-0.19C45.483,20.153,52.412,5,68.483,5h41.51
		h1.639h41.51c15.988,0,22.789,14.686,23.068,15.306c0.029,0.064,0.061,0.128,0.095,0.19l5.903,10.712
		c0.456,0.827,1.31,1.294,2.192,1.294c0.408,0,0.822-0.1,1.204-0.311c1.209-0.666,1.649-2.187,0.983-3.396l-5.857-10.629
		C179.971,16.523,171.865,0,153.142,0h-41.51h-1.639h-41.51C49.76,0,41.654,16.523,40.896,18.167L31.94,34.419
		c-2.127-3.539-5.223-4.922-7.756-5.423c-8.02-1.591-18.151,4.185-20.772,7.733C1.55,39.25,0.846,41.742,1.32,44.137
		c0.5,2.529,2.28,4.734,5.29,6.555c2.732,1.653,7.992,2.184,12.42,2.315c-3.459,2.293-8.174,5.661-11.881,9.219
		C0.081,69.011,0,78.975,0,79.396v35.44c0,7.385,0.001,14.972,5.416,21.798c-0.025,0.141-0.044,0.285-0.044,0.434v16.66
		c-0.02,0.645,0.015,3.8,2.358,6.268c1.728,1.819,4.176,2.742,7.278,2.742h10.074h10.074c3.102,0,5.55-0.922,7.278-2.742
		c2.343-2.468,2.377-5.623,2.358-6.268v-7.024h36.717h52.957c1.381,0,2.5-1.119,2.5-2.5S135.846,141.704,134.465,141.704z
		 M6.225,43.167c-0.189-0.958,0.217-2.125,1.208-3.467c1.715-2.323,9.986-6.947,15.779-5.799c2.907,0.575,4.752,2.577,5.643,6.115
		l-4.395,7.977c-5.394,0.175-12.945-0.176-15.263-1.578C7.989,45.684,6.494,44.527,6.225,43.167z M39.795,153.903
		c0,0.016,0.017,1.593-0.987,2.65c-0.747,0.786-1.975,1.185-3.652,1.185H25.082H15.008c-1.658,0-2.877-0.389-3.625-1.157
		c-1.039-1.066-1.013-2.677-1.014-2.677c0.002-0.043,0.003-0.086,0.003-0.129v-12.343c6.328,4.789,16.125,5.305,20.004,5.305
		c0.809,0,1.36-0.022,1.569-0.032h7.846v7.07C39.792,153.817,39.792,153.86,39.795,153.903z"/>
	<path fill="#212D61" d="M65.68,109.365c0.595-0.041,5.854-0.508,7.461-4.34c1.294-3.089,0.696-6.708-1.642-9.928
		c-0.083-0.114-0.176-0.222-0.277-0.32c-0.564-0.55-13.996-13.539-29.941-19.143c-0.036-0.013-0.073-0.025-0.109-0.036
		c-0.176-0.053-4.366-1.296-9.212-1.296c-9.465,0-15.176,4.879-15.668,13.386c-0.909,15.678,14.179,21.034,22.284,21.675
		c0.065,0.005,0.131,0.008,0.197,0.008h26.737C65.566,109.371,65.623,109.369,65.68,109.365z M38.882,104.371
		c-1.568-0.147-18.431-2.072-17.601-16.394c0.216-3.724,1.558-8.675,10.677-8.675c3.837,0,7.294,0.948,7.727,1.071
		c13.982,4.936,26.371,16.397,27.89,17.835c1.19,1.72,1.538,3.49,0.954,4.883c-0.248,0.592-1.861,1.164-3.123,1.279H38.882z"/>
	<path fill="#212D61" d="M122.359,106.343c0-1.381-1.119-2.5-2.5-2.5h-34.67c-0.935,0-1.791,0.521-2.22,1.351
		c-0.43,0.83-0.36,1.83,0.179,2.592l13.18,18.636c0.468,0.663,1.229,1.057,2.041,1.057h26.191c1.381,0,2.5-1.119,2.5-2.5
		s-1.119-2.5-2.5-2.5H99.663l-9.644-13.636h29.84C121.24,108.843,122.359,107.724,122.359,106.343z"/>
	<path fill="#212D61" d="M51.043,134.959c0.17,0,0.299-0.004,0.381-0.008h19.884c0.006,0,0.013,0,0.02,0c1.381,0,2.5-1.119,2.5-2.5
		c0-0.649-0.248-1.241-0.653-1.685l-9.969-13.798c-0.47-0.651-1.224-1.036-2.026-1.036h-15.53c-0.038,0-0.076,0.001-0.114,0.002
		c-0.327,0.015-3.246,0.218-5.079,2.729c-1.425,1.952-1.704,4.579-0.83,7.809C41.319,132.729,46.634,134.959,51.043,134.959z
		 M44.479,121.634c0.39-0.559,1.146-0.684,1.269-0.703h14.155l6.516,9.02h-15.06c-0.044,0-0.108,0.002-0.152,0.004l-0.163,0.003
		c-1.592,0-5.42-0.467-6.591-4.792C44.013,123.542,44.022,122.288,44.479,121.634z"/>
	<path fill="#212D61" d="M163.89,84.381h48.024c1.15,5.281,5.856,9.25,11.476,9.25c6.479,0,11.75-5.271,11.75-11.75
		s-5.271-11.75-11.75-11.75c-5.621,0-10.326,3.969-11.476,9.25H163.89c-1.381,0-2.5,1.119-2.5,2.5S162.509,84.381,163.89,84.381z
		 M223.39,75.131c3.722,0,6.75,3.028,6.75,6.75s-3.028,6.75-6.75,6.75s-6.75-3.028-6.75-6.75S219.668,75.131,223.39,75.131z"/>
	<path fill="#212D61" d="M249.39,79.381h-9.333c-1.381,0-2.5,1.119-2.5,2.5s1.119,2.5,2.5,2.5h9.333c1.381,0,2.5-1.119,2.5-2.5
		S250.771,79.381,249.39,79.381z"/>
	<path fill="#212D61" d="M163.89,108.119h17.274c1.15,5.281,5.856,9.25,11.476,9.25c6.479,0,11.75-5.271,11.75-11.75
		s-5.271-11.75-11.75-11.75c-5.621,0-10.326,3.969-11.476,9.25H163.89c-1.381,0-2.5,1.119-2.5,2.5S162.509,108.119,163.89,108.119z
		 M192.64,98.869c3.722,0,6.75,3.028,6.75,6.75s-3.028,6.75-6.75,6.75s-6.75-3.028-6.75-6.75S188.918,98.869,192.64,98.869z"/>
	<path fill="#212D61" d="M249.39,103.119h-40.333c-1.381,0-2.5,1.119-2.5,2.5s1.119,2.5,2.5,2.5h40.333c1.381,0,2.5-1.119,2.5-2.5
		S250.771,103.119,249.39,103.119z"/>
	<path fill="#212D61" d="M209.64,118.381c-5.621,0-10.326,3.969-11.476,9.25H163.89c-1.381,0-2.5,1.119-2.5,2.5s1.119,2.5,2.5,2.5
		h34.274c1.15,5.281,5.856,9.25,11.476,9.25c6.479,0,11.75-5.271,11.75-11.75S216.119,118.381,209.64,118.381z M209.64,136.881
		c-3.722,0-6.75-3.028-6.75-6.75s3.028-6.75,6.75-6.75s6.75,3.028,6.75,6.75S213.362,136.881,209.64,136.881z"/>
	<path fill="#212D61" d="M249.39,127.631h-22.583c-1.381,0-2.5,1.119-2.5,2.5s1.119,2.5,2.5,2.5h22.583c1.381,0,2.5-1.119,2.5-2.5
		S250.771,127.631,249.39,127.631z"/>
</g>
</svg>
