<?xml version="1.0" encoding="utf-8"?>
<!-- Generator: Adobe Illustrator 17.0.0, SVG Export Plug-In . SVG Version: 6.00 Build 0)  -->
<!DOCTYPE svg PUBLIC "-//W3C//DTD SVG 1.1//EN" "http://www.w3.org/Graphics/SVG/1.1/DTD/svg11.dtd">
<svg version="1.1" id="Warstwa_1" xmlns="http://www.w3.org/2000/svg" xmlns:xlink="http://www.w3.org/1999/xlink" x="0px" y="0px"
	 width="32px" height="32px" viewBox="0 0 32 32" enable-background="new 0 0 32 32" xml:space="preserve">
<circle fill="#00D1A2" cx="16" cy="16" r="16"/>
<path fill="#FFFFFF" d="M10.645,18.978c1.783,2.131,3.929,3.81,6.379,4.997c0.933,0.442,2.18,0.967,3.57,1.057
	c0.086,0.004,0.168,0.007,0.255,0.007c0.933,0,1.682-0.322,2.293-0.985c0.004-0.004,0.011-0.011,0.015-0.019
	c0.217-0.262,0.465-0.498,0.723-0.749c0.176-0.169,0.356-0.345,0.528-0.524c0.798-0.832,0.798-1.888-0.007-2.693l-2.251-2.251
	c-0.382-0.397-0.839-0.607-1.319-0.607c-0.479,0-0.94,0.21-1.334,0.603l-1.341,1.341c-0.124-0.071-0.251-0.135-0.371-0.195
	c-0.15-0.075-0.288-0.146-0.412-0.225c-1.221-0.776-2.33-1.787-3.39-3.087c-0.536-0.678-0.895-1.247-1.146-1.828
	c0.352-0.318,0.682-0.652,1-0.978c0.112-0.116,0.228-0.232,0.345-0.348c0.405-0.405,0.622-0.873,0.622-1.349
	c0-0.476-0.214-0.944-0.622-1.349L13.065,8.68c-0.131-0.131-0.255-0.258-0.382-0.39c-0.247-0.255-0.506-0.517-0.76-0.753
	c-0.386-0.378-0.839-0.577-1.319-0.577c-0.476,0-0.933,0.198-1.334,0.581L7.869,8.943C7.36,9.452,7.071,10.07,7.011,10.786
	c-0.071,0.895,0.094,1.847,0.521,2.997C8.187,15.562,9.176,17.214,10.645,18.978L10.645,18.978z M7.925,10.864
	C7.97,10.366,8.161,9.95,8.521,9.591l1.393-1.394c0.217-0.21,0.457-0.318,0.689-0.318c0.228,0,0.461,0.109,0.674,0.326
	c0.251,0.232,0.487,0.476,0.742,0.734c0.127,0.131,0.258,0.262,0.39,0.397l1.116,1.116c0.232,0.232,0.352,0.468,0.352,0.701
	c0,0.232-0.12,0.468-0.352,0.7c-0.116,0.116-0.232,0.236-0.348,0.352c-0.348,0.352-0.674,0.686-1.034,1.004l-0.019,0.019
	c-0.311,0.311-0.262,0.607-0.187,0.832c0.004,0.011,0.007,0.019,0.011,0.03c0.288,0.693,0.689,1.352,1.315,2.139
	c1.124,1.386,2.308,2.461,3.611,3.289c0.161,0.105,0.333,0.187,0.494,0.27c0.15,0.075,0.288,0.146,0.412,0.225
	c0.015,0.007,0.026,0.015,0.041,0.022c0.123,0.064,0.243,0.094,0.363,0.094c0.3,0,0.494-0.191,0.558-0.255l1.401-1.401
	c0.217-0.217,0.453-0.333,0.686-0.333c0.285,0,0.517,0.176,0.663,0.333l2.259,2.255c0.45,0.45,0.446,0.936-0.011,1.412
	c-0.157,0.169-0.322,0.33-0.498,0.498c-0.262,0.255-0.536,0.517-0.783,0.813c-0.431,0.464-0.944,0.682-1.607,0.682
	c-0.064,0-0.131-0.004-0.195-0.007c-1.229-0.079-2.371-0.558-3.229-0.966c-2.33-1.128-4.375-2.727-6.072-4.757
	c-1.397-1.682-2.337-3.248-2.959-4.926C8.011,12.445,7.865,11.617,7.925,10.864L7.925,10.864z M7.925,10.864"/>
</svg>
