<?xml version="1.0" encoding="utf-8"?>
<svg xmlns="http://www.w3.org/2000/svg" xmlns:xlink="http://www.w3.org/1999/xlink" viewBox="0 0 765 281.8">
<g>
	<path fill="currentColor" d="M752.6,143c-1.8-3.2-1.5-14.8-1.5-14.8c1.3-19.8-1.5-41.1-1.5-41.1c-0.4-3.4-13.1-9.8-13.1-9.8
		c-3.3-1.5-5.2-3-5.2-3c-14-12.3-66-52.6-66-52.6c-7.4-6.9-17.8-12.4-17.8-12.4c-1.1-0.5-2.7-1-4.6-1.4c0.7,0.1,1.1,0.1,1.1,0.1
		c-1-0.2-2-0.4-3.1-0.6c-17.6-3.7-56.1-5.6-57-5.7c-82.8-4.4-186.5,0.9-186.5,0.9c-18,0.4-49.2,4.7-65.3,11.7
		c-56,24.3-114.6,73.2-114.6,73.2c-89.8,16.8-154.4,33-154.4,33c-15.4,4.6-41.5,17.3-49.2,33c-2,4.1-6.3,12.8-6.5,23.3
		c-1.3,17-2,15.5-2,15.5c-5.7,4.3-5.5,10.7-5.5,19c0,7.8-0.1,26.8,8.5,30c8,3,47.5,3.7,73.5,3.8c-3.2-8-5-16.8-5-26
		c0-38.8,31.5-70.3,70.3-70.3c38.8,0,70.3,31.5,70.3,70.3c0,8.7-1.6,16.9-4.4,24.6l350.9-4.6c-1.9-6.3-2.9-13.1-2.9-20
		c0-38.8,31.5-70.3,70.3-70.3s70.3,31.5,70.3,70.3c0,4.1-0.4,8.2-1.1,12.1l0.6,0.7h13.5c24.3-1,43.8-22.3,43.8-22.3
		c6-4.5,6.5-8.2,6.5-8.2v-36.8C765,159.5,752.6,143,752.6,143z M596,85.5c-45.7,9.3-324.2,15-324.2,15c-7.5,0.1-14,0-17.3-0.3
		c-4.1-0.4-4.9-2-4.9-2c-0.8-1.5-0.5-3.4,3.2-6.6c49.7-43.4,91.5-61,91.5-61C386,13,592,19.5,592,19.5c26,20.7,41.3,48,41.3,48
		C629.7,71.5,596,85.5,596,85.5z"/>
	<path fill="currentColor" d="M631.3,156.4c-34.6,0-62.7,28.1-62.7,62.7c0,7,1.2,13.7,3.3,19.9c8.3,24.8,31.8,42.8,59.4,42.8
		c33.2,0,60.5-26,62.5-58.6c0.1-1.3,0.1-2.7,0.1-4C694,184.6,665.9,156.4,631.3,156.4z M631.3,259.8c-15.8,0-29.6-9.1-36.3-22.3
		c-2.8-5.5-4.4-11.8-4.4-18.4c0-22.4,18.3-40.7,40.7-40.7c20.3,0,37.1,14.9,40.2,34.3c0.3,2.1,0.5,4.2,0.5,6.4
		C672,241.6,653.8,259.8,631.3,259.8z"/>
	<path fill="currentColor" d="M147.2,156.4c-34.6,0-62.7,28.1-62.7,62.7c0,9.3,2,18.1,5.7,26c9.9,21.6,31.7,36.6,57,36.6
		c25.8,0,48-15.7,57.6-38c3.3-7.6,5.1-15.9,5.1-24.7C209.9,184.6,181.8,156.4,147.2,156.4z M147.2,259.8c-12.6,0-23.9-5.8-31.4-14.8
		c-5.8-7-9.3-16.1-9.3-25.9c0-22.4,18.3-40.7,40.7-40.7c22.4,0,40.7,18.3,40.7,40.7c0,9.4-3.2,18.1-8.7,25.1
		C171.8,253.7,160.2,259.8,147.2,259.8z"/>
</g>
</svg>
