<?xml version="1.0" encoding="utf-8"?>
<!-- Generator: Adobe Illustrator 23.0.6, SVG Export Plug-In . SVG Version: 6.00 Build 0)  -->
<svg version="1.1" id="Warstwa_16" xmlns="http://www.w3.org/2000/svg" xmlns:xlink="http://www.w3.org/1999/xlink" x="0px" y="0px"
	 viewBox="0 0 740 740" style="enable-background:new 0 0 740 740;" xml:space="preserve">
<style type="text/css">
	.st0{fill:#F7F7F9;}
	.st1{fill:#00D198;}
	.st2{fill:#353D61;}
</style>
<circle class="st0" cx="370" cy="370" r="370"/>
<g>
	<path class="st1" d="M445.4,279.5c-6,0-10.8,4.9-10.8,10.8v61.2c0,6,4.9,10.8,10.8,10.8l0,0c6,0,10.8-4.9,10.8-10.8v-61.2
		C456.3,284.3,451.4,279.5,445.4,279.5L445.4,279.5z"/>
	<path class="st1" d="M486.9,320.9c0-6-4.9-10.8-10.8-10.8h-61.2c-6,0-10.8,4.9-10.8,10.8l0,0c0,6,4.9,10.8,10.8,10.8H476
		C482,331.7,486.9,326.9,486.9,320.9L486.9,320.9z"/>
	<path class="st1" d="M331.2,281.7c-4.5,0-8.1,3.6-8.1,8.1v45.9c0,4.5,3.6,8.1,8.1,8.1l0,0c4.5,0,8.1-3.6,8.1-8.1v-45.9
		C339.4,285.3,335.7,281.7,331.2,281.7L331.2,281.7z"/>
	<path class="st1" d="M362.3,312.8c0-4.5-3.6-8.1-8.1-8.1h-45.9c-4.5,0-8.1,3.6-8.1,8.1l0,0c0,4.5,3.6,8.1,8.1,8.1h45.9
		C358.7,320.9,362.3,317.3,362.3,312.8L362.3,312.8z"/>
	<path class="st1" d="M382.3,186.8c-6,0-10.8,4.9-10.8,10.8v61.2c0,6,4.9,10.8,10.8,10.8l0,0c6,0,10.8-4.9,10.8-10.8v-61.2
		C393.1,191.6,388.3,186.8,382.3,186.8L382.3,186.8z"/>
	<path class="st1" d="M423.7,228.2c0-6-4.9-10.8-10.8-10.8h-61.2c-6,0-10.8,4.9-10.8,10.8l0,0c0,6,4.9,10.8,10.8,10.8h61.2
		C418.9,239,423.7,234.2,423.7,228.2L423.7,228.2z"/>
	<g>
		<path class="st2" d="M555.6,349.5c-11.3-8.5-24.8-5.1-32.1,3.9c-0.3,0.3-7.6,8-53.3,54.9c0.2,1.4,0.3,2.8,0.3,4.2
			c0,17.6-14.4,32-32,32h-65.3c-4.4,0-8-3.6-8-8c0-4.4,3.6-8,8-8h65.3c1.2,0,2.4-0.1,3.5-0.4c9.1-1.8,16-9.9,16-19.5
			c0-11-8.9-19.9-19.9-19.9H313.8c-1.5-0.1-3.1-0.1-4.6-0.1c-1.6,0-3.2,0-4.8,0.1h-0.1v0c-31.9,1.4-57.5,16.8-71.4,43l62.7,62.7
			l7,5.6c7.5-7.2,17.3-11.2,27.8-11.2l104.8,0.9c14.5,0,29.9-3.6,44.3-18l79.3-93.2C564.3,371.5,566.9,358,555.6,349.5z"/>
		<path class="st2" d="M218.9,440.4c-3.2-2-7.3-1.5-9.9,1.1L176.5,474l78.6,79.2l33.1-32.6c3-3,3.2-8.1,0-11.3
			C216.3,437.6,220.3,441.2,218.9,440.4z"/>
	</g>
</g>
</svg>
