<?xml version="1.0" encoding="utf-8"?>
<svg xmlns="http://www.w3.org/2000/svg" xmlns:xlink="http://www.w3.org/1999/xlink" viewBox="0 0 936.2 378.8">
<g>
	<path fill="currentColor" d="M929.8,206.6c-6.8-4-8.5-10.3-8.5-10.3c-1-3.1-1.4-14.3-1.5-22.4v-33.2c0,0,0.3-11.6-4.3-18.4L857.9,17.5
		c0,0-8.4-10.2-18.1-13.7c-6.8-2.4-13-3.8-24.8-3.8H534.3c0,0-50-1-91.8,5.3c-21,3.2-39.4,10-49.5,16l-132.9,97.6
		c-136.9,18.5-217.9,37.5-217.9,37.5c-14.3,4.3-24.1,9.5-27.7,23.1c-1.1,4.2-1.6,6.8-2.3,16.9c-0.4,4.6-2,25.9-2.1,28.6
		c-0.4,7.6-3.1,8-3.1,8c-5.2,4-6.7,7.2-7,14.9c0,0.6-0.5,37.8,2.1,48.6c1,4,4.2,7.2,6.3,8.1c17.4,7.5,92.4,6.7,92.4,6.7l7-2.5
		c-0.1-1.4-0.1-2.8-0.1-4.3c0-46.2,37.5-83.7,83.7-83.7c45.2,0,82,35.8,83.7,80.6l364.3-3.8l42.3,1.7c2.7-43.8,39.1-78.5,83.6-78.5
		c45.5,0,82.6,36.4,83.7,81.7c16.5-2.4,39.6-5.9,52.3-9.4c21.2-5.9,28.5-14.3,31.2-21.3c2.1-5.5,2.6-12.5,2.6-12.5l1.1-34
		C936.2,216.7,934.7,209.6,929.8,206.6z M468.5,27.3c0,0,55.2-4.7,285.5-1.4c0,0,9.9,0.2,15.7,6.7l11.8,17.8l30.4,67.2l-470.4,17.4
		l-21.2-23.3l79.8-64.7c0,0,15.2-12,37-16.2C446.6,29.1,457,27.3,468.5,27.3z"/>
	<path fill="currentColor" d="M191.5,230.4c-40.9,0-74.2,33.3-74.2,74.2c0,0.3,0,0.6,0,0.9c0.5,40.5,33.6,73.2,74.1,73.2
		c40.9,0,74.2-33.3,74.2-74.2c0-1,0-2-0.1-3C264,262.1,231.4,230.4,191.5,230.4z M191.5,356.8c-28.8,0-52.2-23.4-52.2-52.2
		c0-0.6,0-1.1,0-1.7c0.9-28,23.9-50.5,52.1-50.5c27.8,0,50.6,21.9,52.1,49.4c0,0.9,0.1,1.9,0.1,2.8
		C243.7,333.4,220.3,356.8,191.5,356.8z"/>
	<path fill="currentColor" d="M765.3,230.4c-39.3,0-71.5,30.7-74,69.3c-0.1,1.6-0.2,3.2-0.2,4.8c0,40.9,33.3,74.2,74.2,74.2
		s74.2-33.3,74.2-74.2c0-0.3,0-0.6,0-0.8C839,263.3,805.9,230.4,765.3,230.4z M765.3,356.8c-28.8,0-52.2-23.4-52.2-52.2
		c0-1.3,0.1-2.6,0.2-3.9c2-26.9,24.6-48.2,52-48.2c28.8,0,52.2,23.4,52.2,52.2c0,0.1,0,0.2,0,0.3C817.3,333.5,794,356.8,765.3,356.8
		z"/>
</g>
</svg>
