<?xml version="1.0" encoding="utf-8"?>
<!-- Generator: Adobe Illustrator 23.0.6, SVG Export Plug-In . SVG Version: 6.00 Build 0)  -->
<svg version="1.1" id="Warstwa_16" xmlns="http://www.w3.org/2000/svg" xmlns:xlink="http://www.w3.org/1999/xlink" x="0px" y="0px"
	 viewBox="0 0 741 741" style="enable-background:new 0 0 741 741;" xml:space="preserve">
<style type="text/css">
	.st0{fill:#F7F7F9;}
	.st1{fill:#353D61;}
	.st2{fill:none;}
	.st3{fill:#00D198;}
	.st4{fill:none;stroke:#00D198;stroke-width:4;stroke-miterlimit:10;}
</style>
<circle class="st0" cx="370.5" cy="370.5" r="370"/>
<g>
	<g>
		<g>
			<path class="st1" d="M522.9,291c-3.7-3.5-8.3-6.8-11.7-9.1c4.4-0.1,9.6-0.7,12.3-2.3c3-1.8,4.8-4,5.3-6.5
				c0.5-2.4-0.2-4.9-2.1-7.4c-2.6-3.5-12.7-9.3-20.6-7.7c-2.5,0.5-5.6,1.9-7.7,5.4l-8.9-16.1c-0.8-1.6-8.8-18-27.4-18h-84.1
				c-18.6,0-26.6,16.4-27.4,18l-5.6,10.1h19.9l2.9-5.2l0.2-0.3l0.2-0.5c0-0.1,0.1-0.2,0.2-0.3c0.9-1.6,4.3-7.1,10.8-7.1h8.4H462h0
				c7,0,10.4,6.4,11,7.4l0.2,0.5l0.2,0.3l10.7,19.4l1.2,2.2H447h-12.1c2.4,3.2,3.9,5.9,4.4,7.1l3.4,6.1c0.8-0.2,1.6-0.4,2.4-0.6
				c1.5-0.3,3.2-0.5,4.8-0.5c10.5,0,21.6,6.2,25.8,12c3.7,5,4.4,9.6,4.1,13.1c3.1-1.8,6.5-3.4,10-4.6c0,0,20.6-6.2,21.5,9.8
				c0.5,8.8-4.6,13.5-9.8,16c9.9,8.8,18.1,19.5,23.8,31.7c4.6-6.5,4.6-13.7,4.6-20.6v-35.2C530,307.7,529.9,297.8,522.9,291z"/>
			<path class="st1" d="M449.9,296c-1,0-1.9,0.1-2.9,0.3c-2.5,0.5-5.6,1.9-7.7,5.4l-8.9-16.1c-0.4-0.9-3.3-6.8-9.3-11.6
				c-4.3-3.5-10.3-6.4-18.1-6.4h-43.7H319c-2.6,0-5,0.3-7.2,0.9c-13.5,3.4-19.6,15.8-20.2,17.2l-5.7,10.4h19.9l3-5.5l0.2-0.3
				l0.2-0.5c0-0.1,0.1-0.2,0.2-0.3c0.9-1.6,4.3-7.1,10.8-7.1h8.2h0.3H403h0c7,0,10.4,6.4,11,7.4l0.2,0.5l0.2,0.3l10,18.2
				c4.1-0.5,8.2-0.8,12.4-0.8c11.3,0,22.1,1.9,32.2,5.5c0.3-0.6,0.5-1.3,0.7-1.9c0.5-2.4-0.2-4.9-2.1-7.4
				C465.3,300.8,457.2,296,449.9,296z"/>
			<path class="st1" d="M368.6,312c2.5,3.3,4,6.2,4.6,7.3l0.6,1.1l2.7,5l4.5-0.2c7.9-5.4,17.9-10.4,27.2-13.3H388H368.6z"/>
			<path class="st1" d="M354.7,312c-2.6-2.1-5.8-3.9-9.7-5c-2.4-0.7-5.1-1.1-8.1-1.1h-0.3h-26.6H306h-5.7h-47.1h-0.3
				c-1.8,0-3.6,0.2-5.2,0.5c-1.9,0.3-3.7,0.9-5.4,1.5c-11.1,4.4-16.2,14.8-16.8,16.1l-8.9,16.1c-2.1-3.5-5.2-4.9-7.7-5.4
				c-0.9-0.2-1.9-0.3-2.9-0.3c-7.4,0-15.5,4.8-17.8,8c-1.9,2.5-2.6,5-2.1,7.4c0.5,2.5,2.3,4.7,5.3,6.5c2.7,1.6,7.9,2.2,12.3,2.3
				c-3.4,2.3-8.1,5.6-11.7,9.1c-7,6.7-7.1,16.6-7.1,17.1v35.2c0,7.3,0,14.9,5.4,21.6c0,0.1,0,0.3,0,0.4v16.5c0,0.6,0,3.8,2.3,6.2
				c1.7,1.8,4.2,2.7,7.2,2.7h20c3.1,0,5.5-0.9,7.2-2.7c2.3-2.5,2.4-5.6,2.3-6.2v-7h121.2c-4.7-8.8-8.1-18.3-9.9-28.4
				c-0.3-1.7-0.6-3.3-0.8-5c-0.2-1.7-0.4-3.3-0.5-5c0-0.5-0.1-0.9-0.1-1.4l0.1-13.2c0.2-2.6,0.5-5.1,0.9-7.7
				c2.2-14.8,7.8-28.5,15.9-40.4h-34.2h-11.8h-6.9h-11h-3.6h0h-1.3h0h-11.3h-5.7H269H251h-5h-5h-10.2l1.1-2.1l10.8-19.6l0.2-0.3
				l0.2-0.5c0-0.1,0.1-0.2,0.2-0.3c0.5-1,2-3.3,4.4-5.1c1.4-1,3.2-1.8,5.3-2c0.3,0,0.7-0.1,1-0.1h8.4h6.5h40.9h18.9h8.1h0
				c7,0,10.4,6.4,11,7.4l0.2,0.5l0.2,0.3l3.5,6.3l6.6,12.1c3.2-4.3,6.8-8.3,10.7-12.1c0.3-0.3,0.6-0.6,0.9-0.9l-5.7-10.3
				C363.9,323,360.9,316.9,354.7,312z M241.4,391.6c2.2,1.5,4.2,3,5.9,4.3c4.1,3.2,6.5,5.6,6.5,5.6c2,2.8,2.2,5.4,1.3,7.4
				c-0.7,1.6-2.5,2.3-3.9,2.6c-0.8,0.2-1.4,0.2-1.4,0.2h-3.6h-22.9c0,0-20.8-1.6-19.8-18.9c0.5-9,7.3-10.9,13.1-10.9
				c4.5,0,8.4,1.2,8.4,1.2C231,385.2,236.7,388.5,241.4,391.6z"/>
		</g>
	</g>
	<path class="st2" d="M519.6,405.6c0-5.1-0.5-10.2-1.4-15c0,0,0,0,0,0c-4.3-23.3-18.4-43.3-37.9-55.3c-0.5,0-1.1-0.7-1.7-1
		c0,0,0,0,0-0.1c-2.4-1.4-4.9-2.7-7.5-3.9c-3.4-1.6-7-2.9-10.7-4c-0.1,0-0.2-0.1-0.3-0.1c-7.4-2.2-15.3-3.4-23.4-3.4
		c-12.2,0-23.9,2.7-34.3,7.5c-1.8,0.8-3.6,1.7-5.4,2.7c-1.8,1-3.5,2-5.2,3.1c0,0,0,0,0,0c0,0-0.1,0.1-0.1,0.1c0.1,0,0.1,0,0.2,0.1
		c-14.3,9.3-25.5,23-31.9,39c-1.5,4-2.8,7.7-3.7,11.8c0,0,0,0-0.1,0c-0.5,2.1-0.9,4.1-1.2,6.3c0,0,0,0,0,0c0,0,0,0.1,0,0.1
		c0,0,0,0,0,0c-0.3,2.1-0.5,4.3-0.7,6.5c0,0,0,0,0,0c0,0.1,0,0.2,0,0.2c0,0,0,0,0,0c0,0.7-0.1,1.1-0.1,2.1c0,0.7-0.1,1.8-0.1,2.8
		c0,0,0,0,0,0c0,0.2,0,0.4,0,0.6c0,0.4,0,0.7,0,1.1c0,1.7,0.1,3.3,0.2,5c0,0.2,0,0.4,0,0.6c0,0.1,0,0.2,0,0.5c0,0.1,0,0.1,0,0.2
		c0.2,1.7,0.3,3.4,0.6,5c0.3,1.7,0.6,3.3,0.9,5c0.6,2.6,1.3,5.2,2.1,7.7c4.6,14.1,13,27.1,24,36.5c0.5,0.5,1,1,1.6,1.5
		c1.2,1,2.4,2,3.7,2.9c0.3,0.2,0.6,0.4,1,0.5c2.2,2,4.5,3.1,6.8,4.5c-0.1,0-0.2,0-0.3,0.1c0.1,0,0.1,0.1,0.1,0.1c0,0,0.1,0,0.1,0
		c8.3,4.9,17.5,8.4,27.4,10.2c4.7,0.8,9.5,1.3,14.5,1.3C482.5,488.3,519.6,451.2,519.6,405.6z"/>
	<path class="st3" d="M534,394.6c-1.2-10.8-4.2-21.1-8.7-30.6c0,0,0,0,0,0c-3.6-7.5-8.1-14.5-13.3-20.8c-0.1-0.1-0.3-0.3-0.4-0.4
		c-0.8-0.9-1.6-1.9-2.4-2.8c-0.5-0.5-0.9-1-1.4-1.5c-0.5-0.6-1.1-1.1-1.6-1.7c-0.7-0.7-1.5-1.5-2.2-2.2c-0.4-0.4-0.8-0.7-1.1-1.1
		c-0.4-0.4-0.8-0.8-1.3-1.2c-6.9-6.1-14.7-11.3-23.2-15.3c-1.5-0.7-3-1.4-4.6-2c-0.1,0-0.1,0-0.2-0.1c-0.4-0.2-0.8-0.3-1.2-0.5
		c-0.9-0.4-1.7-0.7-2.9-1.1c-0.2-0.1-0.3-0.1-0.5-0.2c-10.1-3.5-20.9-5.5-32.2-5.5c-4.2,0-8.4,0.3-12.4,0.8
		c-5.5,0.7-10.9,1.9-16.2,3.5c-9.3,2.9-18.1,7.1-26,12.4c-0.9,0.6-1.7,1.2-2.5,1.8c-2,1.5-4,3-5.9,4.6c-1.3,1.1-2.6,2.2-3.8,3.4
		c-0.3,0.3-0.6,0.6-0.9,0.9c-3.8,3.7-7.4,7.7-10.6,12l0-0.1c-0.8,1.1-1.6,2.2-2.3,3.2c-3.1,4.5-5.8,9.4-8.1,14.4
		c-3.8,8.2-6.5,17-7.9,26.2c-0.2,1-0.3,2.1-0.4,3.2c-0.1,0.5-0.1,1-0.2,1.6c-0.1,0.5-0.1,1.1-0.2,1.6c0,0.4-0.1,0.9-0.1,1.3
		c-0.2,2.3-0.3,4.7-0.3,7c0,0,0,0,0,0c0,0,0,0,0,0c0,2.1,0.1,4.3,0.2,6.4c0,0,0,0,0,0c0,0,0,0,0,0.1c0,0,0,0,0,0
		c0,0.3,0,0.3,0.1,0.6c0,0,0,0.1,0,0.1c0,0.1,0,0.3,0,0.5c0.1,2,0.3,3,0.5,5c0.2,2,0.5,3,0.8,5c1.5,8.2,4.1,16.4,7.5,23.5
		c0.8,1.6,1.5,3.2,2.4,4.8c0.3,0.6,0.6,1.2,1,1.7c0.4,0.8,0.8,1.6,1.3,2.2c0.2,0.4,0.4,0.7,0.6,1.1c0.7,1.1,1.3,2.1,2,3.2
		c2.8,4.2,6,8.3,9.4,12c1.8,2,3.8,3.9,5.8,5.8c17.4,16.1,40.7,25.9,66.2,25.9c25.3,0,48.4-9.7,65.8-25.5c0,0,0,0,0,0c0,0,0,0,0,0
		c3.7-3.4,7.1-7,10.3-10.9c-1-1-1.9-1.8-2.7-2.6l0,0c0.8,0.7,1.7,1.6,2.7,2.6c0,0,0,0,0,0c13.6-16.8,21.7-38.1,21.7-61.4
		C534.6,401.9,534.4,398.2,534,394.6z M422.3,487.1c-9.8-1.8-19.1-5.3-27.4-10.2c0,0-0.1,0-0.1,0c-0.1,0-0.1-0.1-0.1-0.1
		c0.1,0,0.2,0,0.3-0.1c-2.3-1.4-4.6-2.5-6.8-4.5c-0.3-0.1-0.6-0.3-1-0.5c-1.3-0.9-2.5-1.9-3.7-2.9c-0.5-0.5-1.1-1-1.6-1.5
		c-11-9.4-19.4-22.4-24-36.5c-0.8-2.5-1.5-5.1-2.1-7.7c-0.4-1.7-0.7-3.3-0.9-5c-0.3-1.6-0.4-3.3-0.6-5c0-0.1,0-0.1,0-0.2
		c0-0.3,0-0.5,0-0.5c0-0.2,0-0.4,0-0.6c-0.1-1.7-0.2-3.3-0.2-5c0-0.4,0-0.7,0-1.1c0-0.2,0-0.4,0-0.6c0,0,0,0,0,0
		c0-0.7,0-1.5,0.1-2.2c0-0.2,0-0.4,0-0.6c0-1,0.1-1.4,0.1-2.1c0,0,0,0,0,0c0-0.1,0-0.2,0-0.2c0,0,0,0,0,0c0.1-2.1,0.4-4.4,0.7-6.5
		c0,0,0,0,0,0c0,0,0-0.1,0-0.1c0,0,0,0,0,0c0.3-2.1,0.7-4.2,1.2-6.3c0,0,0,0,0.1,0c1-4.1,2.2-7.8,3.7-11.8c6.4-16,17.7-29.7,31.9-39
		c-0.1,0-0.1,0-0.2-0.1c0,0,0.1-0.1,0.1-0.1c0,0,0,0,0,0c1.7-1.1,3.4-2.2,5.2-3.1c1.8-1,3.6-1.9,5.4-2.7c10.5-4.8,22.1-7.5,34.3-7.5
		c8.1,0,16,1.2,23.4,3.4c0.1,0,0.2,0.1,0.3,0.1c3.7,1.1,7.2,2.4,10.7,4c2.6,1.2,5,2.5,7.5,3.9c0,0,0,0,0,0.1c0.6,0.3,1.1,1,1.7,1
		c19.5,12,33.6,31.9,37.9,55.3c0,0,0,0,0,0c0.9,4.9,1.4,9.9,1.4,15c0,45.6-37.1,82.8-82.8,82.8C431.9,488.3,427.1,487.9,422.3,487.1
		z M497.1,462.3c1.9-2.1,4.8-2.8,7.3-2.1c0,0,0,0,0,0C501.9,459.6,499,460.3,497.1,462.3c-1.4,1.5-2,3.4-2,5.2
		C495,465.7,495.7,463.8,497.1,462.3z"/>
	<path class="st3" d="M317.6,403.1c0,4.4,3.5,7.9,7.9,7.9H370c4.4,0,7.9-3.5,7.9-7.9l0,0c0-4.4-3.5-7.9-7.9-7.9h-44.5
		C321.1,395.2,317.6,398.7,317.6,403.1L317.6,403.1z"/>
	<path class="st3" d="M495.9,403.1c0,4.4,3.5,7.9,7.9,7.9h44.5c4.4,0,7.9-3.5,7.9-7.9l0,0c0-4.4-3.5-7.9-7.9-7.9h-44.5
		C499.4,395.2,495.9,398.7,495.9,403.1L495.9,403.1z"/>
	<path class="st3" d="M437.7,286.2c-4.4,0-7.9,3.5-7.9,7.9v44.5c0,4.4,3.5,7.9,7.9,7.9l0,0c4.4,0,7.9-3.5,7.9-7.9v-44.5
		C445.6,289.8,442,286.2,437.7,286.2L437.7,286.2z"/>
	<path class="st3" d="M437.7,467.5c-4.4,0-7.9,3.5-7.9,7.9v44.5c0,4.4,3.5,7.9,7.9,7.9l0,0c4.4,0,7.9-3.5,7.9-7.9v-44.5
		C445.6,471,442,467.5,437.7,467.5L437.7,467.5z"/>
	<circle class="st3" cx="437.7" cy="403.4" r="27.4"/>
	<circle class="st4" cx="436.8" cy="405.5" r="81.6"/>
</g>
</svg>
