<?xml version="1.0" encoding="utf-8"?>
<svg xmlns="http://www.w3.org/2000/svg" xmlns:xlink="http://www.w3.org/1999/xlink" viewBox="0 0 869.8 369.9">
<g>
	<path fill="currentColor" d="M863.4,197.8c-6.8-4-8.5-10.3-8.5-10.3c-1-3.1-1.4-14.3-1.5-22.4v-33.2c0,0,0.3-11.6-4.3-18.4l-46.3-73.1
		c0,0-14.9-19.8-21.4-24.7C774.2,10.2,767,4.8,749,4.5c0,0-174.3-13.2-309,5.6c-21.1,2.9-40.8,11.5-50.9,17.5l-139.2,82.5
		C113,128.6,73.4,140.3,73.4,140.3c-14.3,4.3-32.7,12.4-43,20.7c-9.5,7.6-16.8,24.7-17.5,34.8c-0.4,4.6-2,17.6-2.1,20.3
		c-0.4,7.6-3.1,8-3.1,8c-5.2,4-6.7,7.2-7,14.9c0,0.6-1.8,38.7,0.9,49.6c1,4,4.2,7.2,6.3,8.1c17.4,7.5,82.9,5.8,82.9,5.8l7-2.5
		c-0.1-1.4-0.1-2.8-0.1-4.3c0-46.2,37.5-83.7,83.7-83.7c45.2,0,82,35.8,83.7,80.6l315.6-3.8l42.3,1.7c2.7-43.8,39.1-78.5,83.6-78.5
		c45.5,0,82.6,36.4,83.7,81.7c10.7,2.1,35.7-1.9,43.3-3.1c6.7-1.1,30-20.5,32.7-27.5c2.1-5.5,2.6-12.5,2.6-12.5l1.1-34
		C869.8,207.9,868.4,200.7,863.4,197.8z M753.1,108.9l-421.7,17.4l-17-19.3l0,0v0l76.9-52.9c0,0,2.2-1.5,6.1-3.6
		c8.8-4.9,26-13.6,43.8-17.7c9.3-2.1,20.6-4.3,32.8-5.3c0,0,30.1-5.6,177.5-4.7c0,0,24.6-0.1,45,3.1c8.7,1.4,20.5,6.7,26.3,17.1
		c0,0,6.3,9.6,11.8,21.1S753.1,108.9,753.1,108.9L753.1,108.9L753.1,108.9z"/>
	<path fill="currentColor" d="M181.3,369.9c40.9,0,74.2-33.3,74.2-74.2c0-1,0-2-0.1-3c-1.6-39.5-34.2-71.1-74.1-71.1
		c-40.9,0-74.2,33.3-74.2,74.2c0,0.3,0,0.6,0,0.9C107.7,337.2,140.7,369.9,181.3,369.9z M129.2,294.1c0.9-28,23.9-50.5,52.1-50.5
		c27.8,0,50.6,21.9,52.1,49.4c0,0.9,0.1,1.9,0.1,2.8c0,28.8-23.4,52.2-52.2,52.2s-52.2-23.4-52.2-52.2
		C129.1,295.2,129.2,294.7,129.2,294.1z"/>
	<path fill="currentColor" d="M706.4,369.9c40.9,0,74.2-33.3,74.2-74.2c0-0.3,0-0.6,0-0.8c-0.4-40.5-33.5-73.3-74.1-73.3
		c-39.3,0-71.5,30.7-74,69.3c-0.1,1.6-0.2,3.2-0.2,4.8C632.3,336.7,665.5,369.9,706.4,369.9z M654.4,291.8c2-26.9,24.6-48.2,52-48.2
		c28.8,0,52.2,23.4,52.2,52.2c0,0.1,0,0.2,0,0.3c-0.2,28.6-23.5,51.9-52.1,51.9c-28.8,0-52.2-23.4-52.2-52.2
		C654.3,294.4,654.3,293.1,654.4,291.8z"/>
</g>
</svg>
