<?xml version="1.0" encoding="utf-8"?>
<svg xmlns="http://www.w3.org/2000/svg" xmlns:xlink="http://www.w3.org/1999/xlink" viewBox="0 0 993.9 298.3">
<g>
	<path fill="currentColor" d="M983.9,180.2c-1.2-0.7-5.5-1.5-9.2-7.5c-3.7-6-4-12.7-4-12.7c-0.8-15.5-3.3-45.8-3.3-45.8
		c-6-44.3-33.7-38.9-33.7-38.9h-77.7C753.4-7.2,574.1-6.1,486.7,5.9c-87.3,12-179.3,77.3-179.3,77.3C131.3,108.8,32.8,139,32.8,139
		c-15.4,4.6-20.1,14.6-20.6,25.2c-0.2,4.7-0.2,4.5-0.4,15.1c-0.4,5-0.3,8.5-0.5,11.4c-0.4,8.2-3.4,8.6-3.4,8.6
		c-5.7,4.3-7.3,7.8-7.6,16.1c0,0.7-1.5,23.1,1.4,34.8c1.1,4.3,3.3,6.1,5.6,7c12.2,4.5,62.7,4.3,62.7,4.3l10.8-0.2l-0.2,0.2h11.5
		c-4.1-9.4-6.4-19.9-6.4-30.8c0-42.5,34.5-77,77-77s77,34.5,77,77c0,11-2.3,21.4-6.4,30.8h466.1c-4.1-9.4-6.4-19.9-6.4-30.8
		c0-42.5,34.5-77,77-77s77,34.5,77,77c0,11-2.3,21.4-6.4,30.8h14.5c118.5,0,126.7-14.7,126.7-14.7c11.8-6.2,12.2-19.5,12.2-19.5
		v-34.2C993.9,183.5,985.1,180.8,983.9,180.2z M770.8,86.6l-409,8.6c-2.8,0-4.3,0-6.3-1.3c-1.7-1-2.4-2.9-2.5-4.3
		c-0.2-3.2,2.4-4.7,2.4-4.7c36.7-27.4,87-45.1,87-45.1c44.9-17.6,136.3-17.5,136.3-17.5c77.2,0,117.1,18,134.6,25.8
		c17.5,7.8,60.3,33.7,60.3,33.7s1.5,1,1.5,2.4C775.2,85.1,775,86.6,770.8,86.6z"/>
	<path fill="currentColor" d="M162.8,163.1c-37.3,0-67.6,30.3-67.6,67.6c0,11.1,2.7,21.6,7.5,30.8c11.2,21.8,34,36.8,60.2,36.8
		s49-15,60.2-36.8c4.8-9.2,7.5-19.7,7.5-30.8C230.5,193.4,200.1,163.1,162.8,163.1z M162.8,276.3c-13.3,0-25.3-5.7-33.6-14.8
		c-7.4-8.1-12-18.9-12-30.8c0-25.2,20.5-45.6,45.6-45.6s45.6,20.5,45.6,45.6c0,11.9-4.6,22.7-12,30.8
		C188.1,270.6,176.1,276.3,162.8,276.3z"/>
	<path fill="currentColor" d="M770,163.1c-37.3,0-67.6,30.3-67.6,67.6c0,11.1,2.7,21.6,7.5,30.8c11.2,21.8,34,36.8,60.2,36.8
		s49-15,60.2-36.8c4.8-9.2,7.5-19.7,7.5-30.8C837.7,193.4,807.3,163.1,770,163.1z M770,276.3c-13.3,0-25.3-5.7-33.6-14.8
		c-7.4-8.1-12-18.9-12-30.8c0-25.2,20.5-45.6,45.6-45.6s45.6,20.5,45.6,45.6c0,11.9-4.6,22.7-12,30.8
		C795.3,270.6,783.3,276.3,770,276.3z"/>
</g>
</svg>
