<?xml version="1.0" encoding="utf-8"?>
<svg xmlns="http://www.w3.org/2000/svg" xmlns:xlink="http://www.w3.org/1999/xlink" viewBox="0 0 988.6 317.7">
<g>
	<path fill="currentColor" d="M978.9,169.5c-0.8-1-2.1-2.9-2.8-6.1c-0.7-3.1-1-13.9-1-13.9c-0.8-15.4-3.3-33.5-3.3-33.5
		C971.4,98.5,958,88.3,958,88.3s-17.3-16.2-48.1-38.1c-19.3-13.7-34.5-24.5-34.5-24.5C839.1,4,594.2-7,507.5,4.9
		c-50.4,6.9-93.1,30-169.6,69.6c-7.6,3.9-31.4,18.3-42,19c-160.7,15.2-235.7,37.2-235.7,37.2c-20,4.3-34.2,18.6-37.5,30.3
		c-2,7.1-8.4,28.1-9.4,30.9c-2.6,7.7-4.2,8.7-4.2,8.7c-5.6,4.3-7.2,7.7-7.5,16c0,0.6-3.3,23-0.4,34.6c1.1,4.3,3.3,6.1,5.6,7
		c12.1,4.5,40.7,7.4,63.6,9.2c15.6,1.2,31.6,1.9,42.1,2.3c-1.6-6.3-2.5-12.8-2.5-19.6c0-42.5,34.5-77,77-77c42.5,0,77,34.5,77,77
		c0,5.4-0.6,10.7-1.6,15.8l443.3-3.1c-0.7-4.1-1.1-8.4-1.1-12.7c0-42.5,34.5-77,77-77c42.5,0,77,34.5,77,77c0,4.1-0.3,8.1-0.9,12
		l58.1-0.9c30.3-0.4,60.8-13.4,60.8-13.4c11.8-6.1,12.1-19.4,12.1-19.4v-42.5C988.6,176.3,983.8,175.5,978.9,169.5z M897.5,88.7
		c-2.8,2.3-17.7,11.9-23.1,11.9c0,0-515.7,17.3-530.2,13.1c0,0-9.2-1.8,0-10.1c0,0,106.3-65.1,159-71.3c0,0,101.6-21.9,294.8,2.2
		c0,0,36.6,2.2,55.9,16.1c0,0,39.7,30.6,43.6,35.4C897.5,86,899.3,87.2,897.5,88.7z"/>
	<path fill="currentColor" d="M187,182.4c-37.3,0-67.6,30.3-67.6,67.6c0,6.9,1,13.6,3,19.9c8.5,27.6,34.3,47.7,64.7,47.7
		c31.9,0,58.6-22.1,65.8-51.8c1.2-5.1,1.9-10.4,1.9-15.8C254.7,212.8,224.3,182.4,187,182.4z M187,295.7
		c-25.2,0-45.6-20.5-45.6-45.6c0,0,0,0,0,0c0-14.6,6.9-27.6,17.6-36c7.7-6.1,17.5-9.7,28.1-9.7c25.2,0,45.6,20.5,45.6,45.6
		S212.2,295.7,187,295.7z"/>
	<path fill="currentColor" d="M824.7,198c-11.7-9.7-26.8-15.6-43.2-15.6c-37.3,0-67.6,30.3-67.6,67.6c0,4.3,0.4,8.5,1.2,12.6
		c5.9,31.3,33.5,55,66.4,55c33.2,0,60.8-24,66.5-55.5c0.7-3.9,1.1-8,1.1-12.1c0-11.1-2.7-21.6-7.5-30.9
		C837.5,211,831.7,203.8,824.7,198z M781.6,295.7c-20.8,0-38.5-14.1-43.9-33.2c-1.1-4-1.7-8.1-1.7-12.5c0-18,10.5-33.6,25.7-41.1
		c6-2.9,12.8-4.6,19.9-4.6c25.2,0,45.6,20.5,45.6,45.6S806.7,295.7,781.6,295.7z"/>
</g>
</svg>
