<?xml version="1.0" encoding="utf-8"?>
<!-- Generator: Adobe Illustrator 23.0.6, SVG Export Plug-In . SVG Version: 6.00 Build 0)  -->
<svg version="1.1" id="Warstwa_16" xmlns="http://www.w3.org/2000/svg" xmlns:xlink="http://www.w3.org/1999/xlink" x="0px" y="0px"
	 viewBox="0 0 740 740" style="enable-background:new 0 0 740 740;" xml:space="preserve">
<style type="text/css">
	.st0{fill:#F7F7F9;}
	.st1{fill:#353D61;}
	.st2{fill:none;stroke:#FFFFFF;stroke-width:20;stroke-miterlimit:10;}
	.st3{fill:none;stroke:#FFFFFF;stroke-width:20;stroke-linecap:round;stroke-linejoin:round;stroke-miterlimit:10;}
	.st4{fill:#00D198;}
</style>
<circle class="st0" cx="370" cy="370" r="370"/>
<g>
	<path class="st1" d="M562.2,327.8L562.2,327.8c-12.6-17.4-24.1-23.7-47.3-38c-4.3-2.6-9.5-15.8-13.8-18l0.1-0.3
		c2.9-19.9-10.5-38.5-30.3-41.9l-96.9-17c-12.8-2.3-26,0.7-36.6,8.4L169.7,341.8c-15.2,11-18.6,32.2-7.6,47.4l90.5,125.1
		c11,15.2,32.2,18.6,47.4,7.6l167.6-120.9c5.4-3.9,9.9-8.8,13.1-14.4c15.6,7.2,33.5,0.8,47.5,3c34.5,5.3,37.5-4.8,42.7-13.2
		C576,367.9,582.5,356.4,562.2,327.8z M561.7,373.8c-4.2,6.7-47.2,9.6-93.5-19c-13.5-8.4-27.3-17.6-37-27.5c-0.5,0.4,3-5.8,2.5-5.5
		c-12.6,9.1-30.1,6.3-39.2-6.3c-9.1-12.6-6.3-30.1,6.3-39.2c12.6-9.1,30.1-6.3,39.2,6.3c5.4,7.5,6.6,16.8,4,24.9
		c9.5,9.3,21,18.3,33.7,26.2c4.5,2.8,8.8,5.3,13.1,7.5l5.8-39.1c0.7,0.5,6.3-2.7,7.1-2.3c19.8,12.2,30.2,12.2,40.5,26.5l4,5.4
		C557.9,345.5,563.1,371.6,561.7,373.8z"/>
	<circle class="st2" cx="252.5" cy="354" r="22.3"/>
	<circle class="st2" cx="336.5" cy="425" r="22.3"/>
	<line class="st3" x1="252.5" y1="447.3" x2="333.6" y2="331.7"/>
	<path class="st4" d="M435.1,320.7c0,0,69.3,66.5,119.9,48.8c0,0,6.7-24-58.4-67.4l4.4-30.3c0,0,97.7,55.3,81.4,105.8
		c0,0-11.4,49-101.8,8.9c0,0-46.7-27-79.5-64.4C401.1,322.1,421.9,329.7,435.1,320.7z"/>
	<path class="st4" d="M401.1,322.1c0,0-4.4-7.2,0-12.5c9.3-11.4,17.4-4.8,34,11.2l-2.7,13.3h-20.1L401.1,322.1z"/>
</g>
</svg>
