<?xml version="1.0" encoding="utf-8"?>
<!-- Generator: Adobe Illustrator 23.0.6, SVG Export Plug-In . SVG Version: 6.00 Build 0)  -->
<svg xmlns="http://www.w3.org/2000/svg" xmlns:xlink="http://www.w3.org/1999/xlink" viewBox="0 0 1020.1 441.1">
<g>
	<path fill="currentColor" d="M1011.2,284h-5.7c8.3-119.7-19.9-270.6-19.9-270.6C982.3-0.9,969.8,0,969.8,0H415c-11.6,0-33.6,2.1-40.8,3.3
		c-7.1,1.2-33.6,14.6-33.6,14.6C307.3,39.3,140,190.5,140,190.5c-10.7,11.9-18.5,14.9-18.5,14.9l-52.4,18.5
		c-18.5,6.5-36.9,47.6-36.9,47.6c-3,0-10.1,4.8-10.1,4.8c-6,6.5-20.2,50-22,85.1c-1.8,35.1,25,35.7,25,35.7l80.3-1.1
		c-3.3-9-5.1-18.8-5.1-29c0-46.7,37.9-84.6,84.6-84.6s84.6,37.9,84.6,84.6c0,9.4-1.5,18.3-4.3,26.8l139.7-1.9l4.3-0.1l299.7-4.2
		c-1.6-6.6-2.5-13.5-2.5-20.6c0-46.7,37.9-84.6,84.6-84.6s84.6,37.9,84.6,84.6c0,6.3-0.7,12.4-2,18.3l135.5-1.9
		c9.9,0,11.2-6.8,11.2-6.8V298C1020.1,283.4,1011.2,284,1011.2,284z M386.6,174.8c-11.2,36.8-66.3,37.6-66.3,37.6
		c-70.4,4.3-133.4,1.6-133.4,1.6c-14.5-0.7-4.1-17.2-2.3-20.7c1.8-3.4,18.7-21.7,18.7-21.7L289.2,94c23.7-21.4,49-18.6,53.8-19.8
		c4.8-1.2,50.6,0.5,50.6,0.5c13,0.7,11.6,12.6,11.6,12.6C403.7,111.5,386.6,174.8,386.6,174.8z"/>
	<path fill="currentColor" d="M184.9,292.8c-39.3,0-71.5,30.7-74,69.3c-0.1,1.6-0.2,3.2-0.2,4.8c0,10.2,2.1,20,5.8,28.8
		c11.3,26.6,37.7,45.3,68.3,45.3c31.4,0,58.3-19.6,69.1-47.2c3.3-8.3,5.1-17.4,5.1-26.9c0-0.3,0-0.6,0-0.8
		C258.6,325.6,225.5,292.8,184.9,292.8z M184.9,419.1c-18.3,0-34.3-9.4-43.7-23.7c-5.4-8.2-8.5-18-8.5-28.5c0-1.3,0.1-2.6,0.2-3.9
		c2-26.9,24.6-48.2,52-48.2c28.8,0,52.2,23.4,52.2,52.2c0,0.1,0,0.2,0,0.3c-0.1,9.9-2.9,19.1-7.7,27
		C220.1,409.2,203.7,419.1,184.9,419.1z"/>
	<path fill="currentColor" d="M790.9,292.8c-39.3,0-71.5,30.7-74,69.3c-0.1,1.6-0.2,3.2-0.2,4.8c0,7.1,1,13.9,2.9,20.4
		c8.9,31,37.5,53.7,71.3,53.7c34.5,0,63.6-23.7,71.8-55.7c1.5-5.9,2.3-12.1,2.3-18.4c0-0.3,0-0.6,0-0.8
		C864.5,325.6,831.5,292.8,790.9,292.8z M790.9,419.1c-21.6,0-40.2-13.2-48.1-32c-2.6-6.2-4-13-4-20.1c0-1.3,0.1-2.6,0.2-3.9
		c2-26.9,24.6-48.2,52-48.2c28.8,0,52.2,23.4,52.2,52.2c0,0.1,0,0.2,0,0.3c0,6.5-1.3,12.7-3.5,18.5
		C831.9,405.3,813,419.1,790.9,419.1z"/>
</g>
</svg>
