<?xml version="1.0" encoding="utf-8"?>
<!-- Generator: Adobe Illustrator 17.0.0, SVG Export Plug-In . SVG Version: 6.00 Build 0)  -->
<!DOCTYPE svg PUBLIC "-//W3C//DTD SVG 1.1//EN" "http://www.w3.org/Graphics/SVG/1.1/DTD/svg11.dtd">
<svg version="1.1" id="Warstwa_1" xmlns="http://www.w3.org/2000/svg" xmlns:xlink="http://www.w3.org/1999/xlink" x="0px" y="0px"
	 width="252.63px" height="179.007px" viewBox="0 0 252.63 179.007" enable-background="new 0 0 252.63 179.007"
	 xml:space="preserve">
<path fill="#B8C5F4" d="M161.989,41.833H17.167c-8.1,0-14.667-6.566-14.667-14.667l0,0c0-8.1,6.566-14.667,14.667-14.667H162.99"/>
<circle fill="#FFFFFF" cx="182.49" cy="27.167" r="24.667"/>
<path fill="#B8C5F4" d="M78.221,105.167H17.167C9.066,105.167,2.5,98.6,2.5,90.5l0,0c0-8.1,6.566-14.667,14.667-14.667h62.055"/>
<circle fill="#FFFFFF" cx="100.221" cy="90.5" r="24.667"/>
<path fill="#B8C5F4" d="M140.846,166.507H17.167c-8.1,0-14.667-6.566-14.667-14.667l0,0c0-8.1,6.566-14.667,14.667-14.667h124.68"/>
<circle fill="#FFFFFF" cx="162.49" cy="151.84" r="24.667"/>
<g>
	<path fill="#212D61" d="M212.721,44.333h22.742c9.466,0,17.167-7.701,17.167-17.167S244.929,10,235.463,10h-21.741
		c-1.381,0-2.5,1.119-2.5,2.5s1.119,2.5,2.5,2.5h21.741c6.709,0,12.167,5.458,12.167,12.167c0,6.709-5.458,12.167-12.167,12.167
		h-22.742c-1.381,0-2.5,1.119-2.5,2.5S211.34,44.333,212.721,44.333z"/>
	<path fill="#212D61" d="M17.167,44.333h144.286c4.986,6.099,12.563,10,21.037,10c14.98,0,27.167-12.187,27.167-27.167
		C209.657,12.187,197.47,0,182.49,0c-8.473,0-16.051,3.901-21.037,10H17.167C7.701,10,0,17.701,0,27.167S7.701,44.333,17.167,44.333
		z M182.49,5c12.223,0,22.167,9.944,22.167,22.167c0,12.223-9.944,22.167-22.167,22.167c-12.223,0-22.167-9.944-22.167-22.167
		c0-4.626,1.427-8.925,3.861-12.483c0.626-0.343,1.093-0.937,1.248-1.655C169.5,8.127,175.636,5,182.49,5z M17.167,15h141.044
		c-1.843,3.663-2.888,7.794-2.888,12.167c0,4.373,1.045,8.504,2.888,12.167H17.167C10.458,39.333,5,33.875,5,27.167
		C5,20.458,10.458,15,17.167,15z"/>
	<path fill="#212D61" d="M184.484,15.814c5.458,1.427,9.269,6.369,9.269,12.019c0,0.262-0.008,0.522-0.024,0.78
		c-0.087,1.378,0.96,2.565,2.338,2.652c0.054,0.003,0.107,0.005,0.16,0.005c1.309,0,2.409-1.019,2.493-2.343
		c0.023-0.362,0.034-0.727,0.034-1.095c0-7.923-5.348-14.854-13.004-16.856c-1.337-0.347-2.702,0.451-3.051,1.787
		C182.348,14.099,183.148,15.464,184.484,15.814z"/>
	<path fill="#212D61" d="M235.463,73.333h-104.01c-1.381,0-2.5,1.119-2.5,2.5s1.119,2.5,2.5,2.5h104.01
		c6.709,0,12.167,5.458,12.167,12.167s-5.458,12.167-12.167,12.167h-105.01c-1.381,0-2.5,1.119-2.5,2.5s1.119,2.5,2.5,2.5h105.01
		c9.466,0,17.167-7.701,17.167-17.167S244.929,73.333,235.463,73.333z"/>
	<path fill="#212D61" d="M17.167,107.667h61.055c0.297,0,0.577-0.061,0.841-0.155c4.984,6.187,12.615,10.155,21.159,10.155
		c14.979,0,27.167-12.187,27.167-27.167s-12.187-27.167-27.167-27.167c-8.473,0-16.051,3.901-21.037,10H17.167
		C7.701,73.333,0,81.034,0,90.5S7.701,107.667,17.167,107.667z M100.221,68.333c12.223,0,22.167,9.944,22.167,22.167
		s-9.944,22.167-22.167,22.167S78.055,102.723,78.055,90.5S87.999,68.333,100.221,68.333z M17.167,78.333h58.776
		c-1.843,3.663-2.888,7.794-2.888,12.167s1.045,8.503,2.888,12.167H17.167C10.458,102.667,5,97.208,5,90.5
		S10.458,78.333,17.167,78.333z"/>
	<path fill="#212D61" d="M102.215,79.147c5.458,1.427,9.269,6.369,9.269,12.019c0,0.264-0.008,0.525-0.024,0.784
		c-0.085,1.378,0.964,2.564,2.342,2.648c0.052,0.003,0.104,0.005,0.156,0.005c1.311,0,2.412-1.021,2.493-2.347
		c0.022-0.361,0.034-0.725,0.034-1.091c0-7.923-5.348-14.854-13.004-16.856c-1.335-0.348-2.702,0.451-3.051,1.787
		C100.079,77.432,100.879,78.798,102.215,79.147z"/>
	<path fill="#212D61" d="M235.463,134.673h-41.742c-1.381,0-2.5,1.119-2.5,2.5s1.119,2.5,2.5,2.5h41.742
		c6.709,0,12.167,5.458,12.167,12.167c0,6.709-5.458,12.167-12.167,12.167h-42.742c-1.381,0-2.5,1.119-2.5,2.5s1.119,2.5,2.5,2.5
		h42.742c9.466,0,17.167-7.701,17.167-17.167S244.929,134.673,235.463,134.673z"/>
	<path fill="#212D61" d="M162.489,124.673c-8.473,0-16.051,3.901-21.037,10H17.167C7.701,134.673,0,142.374,0,151.84
		s7.701,17.167,17.167,17.167h123.679c0.191,0,0.375-0.026,0.554-0.066c4.985,6.136,12.585,10.066,21.089,10.066
		c14.98,0,27.167-12.187,27.167-27.167C189.656,136.86,177.469,124.673,162.489,124.673z M17.167,164.007
		C10.458,164.007,5,158.549,5,151.84c0-6.708,5.458-12.167,12.167-12.167H138.21c-1.843,3.663-2.888,7.794-2.888,12.167
		c0,4.373,1.045,8.504,2.888,12.167H17.167z M162.489,174.007c-12.223,0-22.167-9.944-22.167-22.167
		c0-12.223,9.944-22.167,22.167-22.167c12.223,0,22.167,9.944,22.167,22.167C184.656,164.063,174.712,174.007,162.489,174.007z"/>
	<path fill="#212D61" d="M165.748,135.649c-1.338-0.349-2.702,0.451-3.051,1.787c-0.349,1.336,0.451,2.702,1.787,3.051
		c5.458,1.427,9.269,6.369,9.269,12.019c0,0.264-0.008,0.525-0.024,0.784c-0.085,1.378,0.964,2.564,2.342,2.648
		c0.052,0.003,0.104,0.005,0.156,0.005c1.311,0,2.412-1.021,2.493-2.347c0.022-0.361,0.034-0.725,0.034-1.091
		C178.752,144.583,173.405,137.651,165.748,135.649z"/>
</g>
</svg>
