<?xml version="1.0" encoding="utf-8"?>
<!-- Generator: Adobe Illustrator 17.0.0, SVG Export Plug-In . SVG Version: 6.00 Build 0)  -->
<!DOCTYPE svg PUBLIC "-//W3C//DTD SVG 1.1//EN" "http://www.w3.org/Graphics/SVG/1.1/DTD/svg11.dtd">
<svg version="1.1" id="Warstwa_1" xmlns="http://www.w3.org/2000/svg" xmlns:xlink="http://www.w3.org/1999/xlink" x="0px" y="0px"
	 width="239.357px" height="204.085px" viewBox="0 0 239.357 204.085" enable-background="new 0 0 239.357 204.085"
	 xml:space="preserve">
<path fill="#B8C5F4" d="M218.017,33.141c-10.406,0-18.841,8.435-18.841,18.841v7.933h37.682v-7.933
	C236.858,41.576,228.422,33.141,218.017,33.141z"/>
<g>
	<path fill="#B8C5F4" d="M161.494,182.744v-7.933H65.853H36.104v7.933c0,10.406,8.435,18.841,18.841,18.841h125.39
		C169.93,201.585,161.494,193.15,161.494,182.744z"/>
	<path fill="#FFFFFF" d="M65.853,110.474v42.653v21.684h95.641v7.933c0,10.406,8.435,18.841,18.841,18.841
		s18.841-8.435,18.841-18.841v-7.933v-21.684V51.982c0-10.406,8.435-18.841,18.841-18.841H105.783"/>
</g>
<circle fill="#FFFFFF" cx="56.86" cy="56.86" r="54.36"/>
<g>
	<path fill="#212D61" d="M218.017,30.641H107.289C97.794,12.452,78.759,0,56.86,0C25.507,0,0,25.507,0,56.86
		s25.507,56.86,56.86,56.86c2.197,0,4.361-0.138,6.493-0.382v58.974H36.104c-1.381,0-2.5,1.119-2.5,2.5v7.933
		c0,11.768,9.573,21.341,21.341,21.341h125.39c11.768,0,21.341-9.573,21.341-21.341V62.415h35.182c1.381,0,2.5-1.119,2.5-2.5v-7.933
		C239.357,40.214,229.784,30.641,218.017,30.641z M5,56.86C5,28.264,28.264,5,56.86,5s51.86,23.264,51.86,51.86
		c0,8.802-2.211,17.095-6.097,24.364c-0.851,1.44-1.163,2.252-1.967,3.356c-9.206,14.494-25.391,24.14-43.796,24.14
		C28.264,108.72,5,85.456,5,56.86z M166.623,199.085H54.945c-9.01,0-16.341-7.331-16.341-16.341v-5.433h120.39v5.433
		c0,0.681,0.04,1.353,0.102,2.019c0.008,0.08,0.012,0.161,0.02,0.241c0.067,0.63,0.165,1.249,0.285,1.862
		c0.021,0.105,0.041,0.21,0.063,0.315c0.128,0.601,0.28,1.191,0.457,1.772c0.03,0.099,0.063,0.197,0.094,0.296
		c0.188,0.587,0.397,1.165,0.634,1.728c0.029,0.068,0.06,0.134,0.089,0.201c0.252,0.583,0.524,1.154,0.824,1.709
		c0.005,0.009,0.009,0.019,0.014,0.028c0.303,0.556,0.635,1.093,0.984,1.618c0.045,0.068,0.087,0.136,0.133,0.203
		c0.338,0.496,0.699,0.975,1.077,1.44c0.066,0.081,0.132,0.163,0.199,0.243c0.38,0.454,0.778,0.892,1.194,1.313
		c0.071,0.072,0.144,0.142,0.216,0.213C165.781,198.339,166.192,198.723,166.623,199.085z M196.676,182.744
		c0,9.01-7.331,16.341-16.341,16.341s-16.341-7.331-16.341-16.341v-7.933v0c0-1.381-1.119-2.5-2.5-2.5H68.353v-59.76
		c15.747-3.245,29.135-13.023,37.2-26.364h42.992c1.381,0,2.5-1.119,2.5-2.5s-1.119-2.5-2.5-2.5h-40.304
		c1.801-3.789,3.187-7.809,4.118-12h59.68c1.381,0,2.5-1.119,2.5-2.5s-1.119-2.5-2.5-2.5h-58.807
		c0.311-2.401,0.488-4.843,0.488-7.328c0-7.499-1.473-14.657-4.123-21.219h94.708c-0.431,0.362-0.842,0.746-1.242,1.14
		c-0.072,0.071-0.145,0.141-0.216,0.213c-0.416,0.421-0.814,0.859-1.194,1.313c-0.067,0.081-0.133,0.162-0.199,0.243
		c-0.378,0.465-0.739,0.944-1.077,1.44c-0.046,0.067-0.088,0.136-0.133,0.203c-0.349,0.525-0.681,1.062-0.984,1.618
		c-0.005,0.009-0.009,0.019-0.014,0.028c-0.301,0.554-0.573,1.126-0.824,1.709c-0.029,0.068-0.061,0.134-0.089,0.201
		c-0.237,0.564-0.445,1.141-0.634,1.728c-0.032,0.099-0.064,0.197-0.094,0.296c-0.177,0.581-0.329,1.172-0.457,1.772
		c-0.022,0.105-0.042,0.21-0.063,0.315c-0.12,0.612-0.218,1.232-0.285,1.862c-0.008,0.08-0.013,0.161-0.02,0.241
		c-0.063,0.665-0.102,1.337-0.102,2.019v7.933V182.744z M234.357,57.415h-32.682v-5.433c0-9.01,7.331-16.341,16.341-16.341
		s16.341,7.331,16.341,16.341V57.415z"/>
	<path fill="#212D61" d="M172.038,107.238H92.545c-1.381,0-2.5,1.119-2.5,2.5s1.119,2.5,2.5,2.5h79.493c1.381,0,2.5-1.119,2.5-2.5
		S173.419,107.238,172.038,107.238z"/>
	<path fill="#212D61" d="M172.038,147.466H92.545c-1.381,0-2.5,1.119-2.5,2.5s1.119,2.5,2.5,2.5h79.493c1.381,0,2.5-1.119,2.5-2.5
		S173.419,147.466,172.038,147.466z"/>
	<path fill="#212D61" d="M92.545,129.238h56c1.381,0,2.5-1.119,2.5-2.5s-1.119-2.5-2.5-2.5h-56c-1.381,0-2.5,1.119-2.5,2.5
		S91.164,129.238,92.545,129.238z"/>
	<path fill="#212D61" d="M77.617,61.167c-1.411-1.467-3.11-2.243-4.913-2.243c-1.788,0-3.5,0.768-4.952,2.22l-4.049,4.048
		c-0.253-0.133-0.508-0.261-0.762-0.389c-0.442-0.221-0.908-0.458-1.299-0.707c-3.97-2.521-7.588-5.816-11.054-10.066
		c-1.607-2.034-2.698-3.725-3.483-5.409c1.038-0.961,2.022-1.958,2.95-2.907c0.356-0.369,0.724-0.737,1.133-1.146
		c1.493-1.492,2.282-3.222,2.282-5.001c0-1.793-0.79-3.523-2.282-5.002l-3.701-3.702c-0.432-0.431-0.839-0.851-1.259-1.284
		c-0.767-0.789-1.659-1.699-2.534-2.509c-1.419-1.392-3.112-2.127-4.897-2.127c-1.769,0-3.477,0.737-4.952,2.145L29.2,31.732
		c-1.818,1.818-2.848,4.031-3.062,6.582c-0.245,3.084,0.318,6.344,1.771,10.255c2.206,5.989,5.526,11.533,10.45,17.449
		c5.966,7.132,13.166,12.771,21.406,16.765c3.174,1.504,7.419,3.27,12.161,3.576c0.284,0.012,0.557,0.023,0.842,0.023
		c3.312,0,5.979-1.147,8.121-3.476l0.146-0.154l0.019-0.038c0.627-0.748,1.341-1.44,2.096-2.173l0.187-0.181
		c0.591-0.566,1.195-1.157,1.773-1.761c2.913-3.036,2.898-7.046-0.036-9.979L77.617,61.167z M43.405,45.848l-0.096,0.093
		c-1.482,1.482-0.971,3.02-0.802,3.525l0.057,0.15c1.001,2.405,2.378,4.647,4.469,7.277c3.765,4.643,7.74,8.262,12.147,11.061
		c0.478,0.311,0.964,0.557,1.435,0.795l0.279,0.142c0.44,0.219,0.903,0.455,1.298,0.706l0.196,0.108c1.358,0.7,2.8,0.457,3.929-0.67
		l4.645-4.646c0.58-0.58,1.182-0.886,1.743-0.886c0.734,0,1.349,0.542,1.669,0.886l7.489,7.477c1.198,1.198,1.182,2.352-0.055,3.641
		c-0.512,0.549-1.049,1.073-1.626,1.625l-0.134,0.13c-0.842,0.817-1.712,1.662-2.489,2.593c-1.279,1.378-2.797,2.021-4.779,2.021
		c-0.196,0-0.404-0.012-0.598-0.023c-3.943-0.252-7.646-1.807-10.428-3.131c-7.648-3.701-14.338-8.943-19.883-15.578
		c-4.575-5.507-7.653-10.628-9.687-16.117c-1.228-3.278-1.711-5.926-1.521-8.327c0.136-1.5,0.694-2.695,1.758-3.76l4.61-4.611
		c0.573-0.553,1.184-0.845,1.766-0.845c0.562,0,1.15,0.296,1.726,0.88c0.707,0.654,1.38,1.339,2.094,2.064l5.337,5.368
		c0.629,0.629,0.948,1.232,0.948,1.792s-0.319,1.164-0.948,1.792l-1.415,1.43C45.485,43.879,44.49,44.887,43.405,45.848z"/>
</g>
</svg>
