<?xml version="1.0" encoding="utf-8"?>
<!-- Generator: Adobe Illustrator 17.0.0, SVG Export Plug-In . SVG Version: 6.00 Build 0)  -->
<!DOCTYPE svg PUBLIC "-//W3C//DTD SVG 1.1//EN" "http://www.w3.org/Graphics/SVG/1.1/DTD/svg11.dtd">
<svg version="1.1" id="Warstwa_1" xmlns="http://www.w3.org/2000/svg" xmlns:xlink="http://www.w3.org/1999/xlink" x="0px" y="0px"
	 width="522.975px" height="522.975px" viewBox="0 0 522.975 522.975" enable-background="new 0 0 522.975 522.975"
	 xml:space="preserve">
<g>
	<g>
		<path d="M399.985,274.526v94.859h-54.992v-88.507c0-22.233-7.955-37.405-27.861-37.405c-15.195,0-24.236,10.224-28.215,20.116
			c-1.451,3.536-1.824,8.459-1.824,13.41v92.386H232.08c0,0,0.74-149.898,0-165.429h55.007v23.447
			c-0.114,0.175-0.257,0.365-0.362,0.536h0.362v-0.536c7.307-11.254,20.359-27.336,49.571-27.336
			C372.852,200.067,399.985,223.713,399.985,274.526L399.985,274.526z M174.536,124.209c-18.819,0-31.128,12.344-31.128,28.577
			c0,15.88,11.954,28.6,30.397,28.6h0.37c19.183,0,31.113-12.717,31.113-28.6C204.928,136.553,193.358,124.209,174.536,124.209
			L174.536,124.209z M146.676,369.385h54.989V203.956h-54.989V369.385z M146.676,369.385"/>
	</g>
</g>
<g>
	<path d="M261.487,522.975c-69.846,0-135.511-27.199-184.899-76.588S0,331.333,0,261.487S27.199,125.977,76.588,76.588
		S191.642,0,261.487,0s135.511,27.199,184.899,76.588s76.588,115.054,76.588,184.899s-27.199,135.511-76.588,184.899
		S331.333,522.975,261.487,522.975z M261.487,19C127.779,19,19,127.779,19,261.487s108.779,242.487,242.487,242.487
		s242.487-108.779,242.487-242.487S395.195,19,261.487,19z"/>
</g>
</svg>
