<?xml version="1.0" encoding="utf-8"?>
<!-- Generator: Adobe Illustrator 17.0.0, SVG Export Plug-In . SVG Version: 6.00 Build 0)  -->
<!DOCTYPE svg PUBLIC "-//W3C//DTD SVG 1.1//EN" "http://www.w3.org/Graphics/SVG/1.1/DTD/svg11.dtd">
<svg version="1.1" id="Warstwa_1" xmlns="http://www.w3.org/2000/svg" xmlns:xlink="http://www.w3.org/1999/xlink" x="0px" y="0px"
	 width="26px" height="26px" viewBox="0 0 26 26" enable-background="new 0 0 26 26" xml:space="preserve">
<rect fill="#00D197" width="26" height="26"/>
<path fill="#FFFFFF" d="M7.99,11.022H6.047c-0.267,0-0.486,0.218-0.486,0.486v7.471c0,0.268,0.218,0.486,0.486,0.486H7.99
	c0.268,0,0.486-0.218,0.486-0.486v-7.471C8.476,11.24,8.257,11.022,7.99,11.022z"/>
<path fill="#FFFFFF" d="M15.485,10.237l0.512-1.396c0.353-0.964,0.124-2.436-0.855-2.959c-0.319-0.17-0.764-0.256-1.124-0.166
	c-0.206,0.052-0.387,0.188-0.495,0.371c-0.124,0.21-0.111,0.455-0.155,0.689c-0.112,0.591-0.391,1.153-0.824,1.575
	c-0.754,0.735-3.097,2.857-3.097,2.857v7.771h8.095c1.092,0.001,1.808-1.219,1.269-2.172c0.642-0.411,0.862-1.278,0.486-1.943
	c0.642-0.411,0.862-1.278,0.486-1.943c1.108-0.71,0.738-2.466-0.557-2.685C19.147,10.223,15.485,10.237,15.485,10.237z"/>
</svg>
