<?xml version="1.0" encoding="utf-8"?>
<!-- Generator: Adobe Illustrator 17.0.0, SVG Export Plug-In . SVG Version: 6.00 Build 0)  -->
<!DOCTYPE svg PUBLIC "-//W3C//DTD SVG 1.1//EN" "http://www.w3.org/Graphics/SVG/1.1/DTD/svg11.dtd">
<svg version="1.1" id="Warstwa_16" xmlns="http://www.w3.org/2000/svg" xmlns:xlink="http://www.w3.org/1999/xlink" x="0px" y="0px"
	 width="128.725px" height="128.725px" viewBox="0 0 128.725 128.725" enable-background="new 0 0 128.725 128.725"
	 xml:space="preserve">
<g>
	<path d="M57.063,114.124C25.598,114.124,0,88.526,0,57.062S25.598,0,57.063,0c31.464,0,57.062,25.598,57.062,57.062
		S88.526,114.124,57.063,114.124z M57.063,9C30.561,9,9,30.561,9,57.062c0,26.501,21.561,48.062,48.063,48.062
		c26.501,0,48.062-21.561,48.062-48.062C105.124,30.561,83.563,9,57.063,9z"/>
</g>
<g>
	<path d="M94.864,57.062h-9c0-15.882-12.921-28.802-28.802-28.802v-9C77.906,19.26,94.864,36.218,94.864,57.062z"/>
</g>
<g>
	<rect x="87.112" y="105.125" transform="matrix(0.7071 0.7071 -0.7071 0.7071 109.6255 -45.408)" width="45.025" height="8.999"/>
</g>
</svg>
