<?xml version="1.0" encoding="utf-8"?>
<!-- Generator: Adobe Illustrator 17.0.0, SVG Export Plug-In . SVG Version: 6.00 Build 0)  -->
<!DOCTYPE svg PUBLIC "-//W3C//DTD SVG 1.1//EN" "http://www.w3.org/Graphics/SVG/1.1/DTD/svg11.dtd">
<svg version="1.1" id="Warstwa_1" xmlns="http://www.w3.org/2000/svg" xmlns:xlink="http://www.w3.org/1999/xlink" x="0px" y="0px"
	 width="26px" height="26px" viewBox="0 0 26 26" enable-background="new 0 0 26 26" xml:space="preserve">
<rect fill="#F8D070" width="26" height="26"/>
<path fill="#FFFFFF" d="M17.91,10.563c-2.873,0-4.336-0.342-5.214-1.221s-1.221-2.339-1.221-5.214c0-0.395-0.32-0.715-0.715-0.715
	s-0.715,0.32-0.715,0.715c0,2.874-0.342,4.336-1.221,5.214s-2.341,1.221-5.214,1.221c-0.395,0-0.715,0.32-0.715,0.715
	c0,0.395,0.32,0.715,0.715,0.715c2.873,0,4.336,0.342,5.214,1.221c0.878,0.879,1.221,2.339,1.221,5.214
	c0,0.395,0.32,0.715,0.715,0.715s0.715-0.32,0.715-0.715c0-2.874,0.342-4.336,1.221-5.214s2.341-1.221,5.214-1.221
	c0.395,0,0.715-0.32,0.715-0.715C18.625,10.883,18.305,10.563,17.91,10.563z"/>
<path fill="#FFFFFF" d="M23.353,18.843c-1.594,0-2.406-0.19-2.893-0.678c-0.487-0.488-0.678-1.298-0.678-2.893
	c0-0.219-0.178-0.397-0.397-0.397c-0.219,0-0.397,0.178-0.397,0.397c0,1.595-0.19,2.406-0.678,2.893
	c-0.488,0.487-1.299,0.678-2.893,0.678c-0.219,0-0.397,0.178-0.397,0.397s0.178,0.397,0.397,0.397c1.594,0,2.406,0.19,2.893,0.678
	c0.487,0.488,0.678,1.298,0.678,2.893c0,0.219,0.178,0.397,0.397,0.397c0.219,0,0.397-0.178,0.397-0.397
	c0-1.595,0.19-2.406,0.678-2.893c0.488-0.487,1.299-0.678,2.893-0.678c0.219,0,0.397-0.178,0.397-0.397S23.572,18.843,23.353,18.843
	z"/>
</svg>
