<?xml version="1.0" encoding="utf-8"?>
<!-- Generator: Adobe Illustrator 23.0.6, SVG Export Plug-In . SVG Version: 6.00 Build 0)  -->
<svg version="1.1" id="Warstwa_1" xmlns="http://www.w3.org/2000/svg" xmlns:xlink="http://www.w3.org/1999/xlink" x="0px" y="0px"
	 viewBox="0 0 217.1 217.1" style="enable-background:new 0 0 217.1 217.1;" xml:space="preserve">
<style type="text/css">
	.st0{fill:#7F859B;}
</style>
<g>
	<path class="st0" d="M113.3,106.4l-18.4,67.3H51.8L71.9,100c9.2-33.4,32.8-51.1,58.8-51.1h68.4C179.8,19.4,146.4,0,108.5,0
		C48.6,0,0,48.6,0,108.5s48.6,108.5,108.5,108.5c44.3,0,82.3-26.5,99.2-64.5H120l8.8-32.2h87.6c0.4-3.9,0.6-7.8,0.6-11.8
		c0-5.3-0.4-10.4-1.1-15.5h-86.8C122.4,93,115.3,99,113.3,106.4z"/>
</g>
</svg>
