<?xml version="1.0" encoding="UTF-8"?>
<svg width="21px" height="22px" viewBox="0 0 21 22" version="1.1" xmlns="http://www.w3.org/2000/svg" xmlns:xlink="http://www.w3.org/1999/xlink">
    <title>phone (1)</title>
    <g id="Page-1" stroke="none" stroke-width="1" fill="none" fill-rule="evenodd">
        <g id="main-board" transform="translate(-1211.000000, -40.000000)" fill="#00D197" fill-rule="nonzero">
            <g id="telefon" transform="translate(1211.000000, 39.000000)">
                <g id="phone-(1)" transform="translate(0.000000, 1.300000)">
                    <path d="M18.8366933,13.4427733 C17.5828267,13.4427733 16.35168,13.2466667 15.1850133,12.86112 C14.6133333,12.6661333 13.91056,12.8450133 13.5616533,13.20336 L11.25888,14.9417067 C8.58832,13.51616 6.94330667,11.87168 5.53722667,9.22117333 L7.22442667,6.9784 C7.66277333,6.54064 7.82,5.90117333 7.63162667,5.30117333 C7.24442667,4.12837333 7.04773333,2.89781333 7.04773333,1.64341333 C7.04778667,0.737226667 6.31056,0 5.40442667,0 L1.64336,0 C0.737226667,0 0,0.737226667 0,1.64336 C0,12.0300267 8.45002667,20.48 18.8366933,20.48 C19.7428267,20.48 20.4800533,19.7427733 20.4800533,18.83664 L20.4800533,15.08608 C20.4800533,14.18 19.7427733,13.4427733 18.8366933,13.4427733 Z" id="Path"></path>
                </g>
            </g>
        </g>
    </g>
</svg>