<?xml version="1.0" encoding="utf-8"?>
<!-- Generator: Adobe Illustrator 17.0.0, SVG Export Plug-In . SVG Version: 6.00 Build 0)  -->
<!DOCTYPE svg PUBLIC "-//W3C//DTD SVG 1.1//EN" "http://www.w3.org/Graphics/SVG/1.1/DTD/svg11.dtd">
<svg version="1.1" id="Warstwa_1" xmlns="http://www.w3.org/2000/svg" xmlns:xlink="http://www.w3.org/1999/xlink" x="0px" y="0px"
	 width="32px" height="32px" viewBox="0 0 32 32" enable-background="new 0 0 32 32" xml:space="preserve">
<circle fill="#00D1A2" cx="16" cy="16" r="16"/>
<path fill="#FFFFFF" d="M25.745,9.021H6.255c-0.256,0-0.465,0.206-0.465,0.465v13.923c0,0.256,0.208,0.462,0.465,0.462h19.49
	c0.256,0,0.465-0.206,0.465-0.462V9.486C26.21,9.227,26.002,9.021,25.745,9.021z M24.345,9.948l-8.343,8.344L7.658,9.948H24.345z
	 M6.72,10.324l5.749,5.749L6.72,21.82V10.324z M6.91,22.944l6.214-6.216l2.549,2.549c0.182,0.182,0.474,0.182,0.655,0l2.55-2.549
	l6.215,6.216H6.91z M25.283,21.82l-5.75-5.747l-0.548,0.547l6.298-6.296V21.82z"/>
</svg>
