<?xml version="1.0" encoding="utf-8"?>
<!-- Generator: Adobe Illustrator 17.0.0, SVG Export Plug-In . SVG Version: 6.00 Build 0)  -->
<!DOCTYPE svg PUBLIC "-//W3C//DTD SVG 1.1//EN" "http://www.w3.org/Graphics/SVG/1.1/DTD/svg11.dtd">
<svg version="1.1" id="Warstwa_1" xmlns="http://www.w3.org/2000/svg" xmlns:xlink="http://www.w3.org/1999/xlink" x="0px" y="0px"
	 width="287.882px" height="164.639px" viewBox="0 0 287.882 164.639" enable-background="new 0 0 287.882 164.639"
	 xml:space="preserve">
<circle fill="#B8C5F4" cx="46.224" cy="111.334" r="21.55"/>
<circle fill="#B8C5F4" cx="229.064" cy="111.334" r="21.55"/>
<line fill="#BABFDB" x1="156.172" y1="17.589" x2="231.319" y2="17.589"/>
<line fill="#BABFDB" x1="182.222" y1="2.5" x2="257.369" y2="2.5"/>
<line fill="#BABFDB" x1="265.114" y1="2.5" x2="278.183" y2="2.5"/>
<line fill="#BABFDB" x1="44.715" y1="162.139" x2="153.966" y2="162.139"/>
<g>
	<line fill="#BABFDB" x1="123.797" y1="147.84" x2="198.943" y2="147.84"/>
	<g>
		<path fill="#212D61" d="M34.847,117.289c0.24,0,0.485-0.035,0.727-0.108c1.321-0.4,2.067-1.797,1.667-3.118
			c-0.267-0.879-0.402-1.797-0.402-2.729c0-5.176,4.21-9.386,9.386-9.386c1.189,0,2.346,0.219,3.44,0.649
			c1.283,0.506,2.735-0.125,3.242-1.409c0.506-1.284-0.125-2.736-1.409-3.242c-1.68-0.662-3.454-0.998-5.273-0.998
			c-7.932,0-14.386,6.454-14.386,14.386c0,1.423,0.208,2.83,0.618,4.18C32.783,116.594,33.775,117.289,34.847,117.289z"/>
		<path fill="#212D61" d="M229.064,87.285c-13.261,0-24.05,10.789-24.05,24.05c0,2.432,0.366,4.779,1.04,6.993H74.8
			c-1.381,0-2.5,1.119-2.5,2.5s1.119,2.5,2.5,2.5h133.432c4.16,7.199,11.937,12.057,20.833,12.057
			c13.261,0,24.05-10.789,24.05-24.05S242.325,87.285,229.064,87.285z M229.064,130.384c-10.504,0-19.05-8.546-19.05-19.05
			s8.546-19.05,19.05-19.05s19.05,8.546,19.05,19.05S239.568,130.384,229.064,130.384z"/>
		<path fill="#212D61" d="M234.337,97.946c-1.68-0.662-3.454-0.998-5.273-0.998c-7.933,0-14.386,6.454-14.386,14.386
			c0,1.423,0.208,2.83,0.618,4.18c0.327,1.08,1.319,1.775,2.391,1.775c0.24,0,0.485-0.035,0.727-0.108
			c1.321-0.4,2.067-1.797,1.667-3.118c-0.267-0.879-0.402-1.797-0.402-2.729c0-5.176,4.21-9.386,9.386-9.386
			c1.189,0,2.346,0.219,3.44,0.649c1.283,0.506,2.735-0.125,3.242-1.409C236.252,99.904,235.621,98.453,234.337,97.946z"/>
		<path fill="#212D61" d="M287.403,93.617l-6.056-30.923c-0.128-0.651-0.509-1.225-1.06-1.595s-1.226-0.506-1.876-0.378
			c-14.932,2.938-36.744-4.38-55.989-10.836c-9.781-3.281-19.02-6.38-25.943-7.549c-18.46-3.116-29.353-3.634-53.727-0.321
			c-22.72,3.087-58.147,22.999-63.025,25.79c-38.559,2.529-58.97,10.165-69.313,16.141c-4.98,2.877-8.142,7.44-9.684,13.875
			c-0.057,0.158-0.097,0.322-0.121,0.493c-0.048,0.217-0.111,0.418-0.156,0.639c-0.941,4.642-0.139,17.443-0.044,18.888
			c0.064,0.986,0.704,1.842,1.632,2.183c9.64,3.546,21.094,5.032,24.737,5.438c4.376,6.008,11.461,9.924,19.446,9.924
			c13.261,0,24.05-10.789,24.05-24.05s-10.789-24.05-24.05-24.05c-13.261,0-24.049,10.789-24.049,24.05c0,3.068,0.584,6,1.635,8.701
			c-4.605-0.658-11.941-1.949-18.51-4.165c-0.221-4.052-0.483-11.182-0.109-14.781c4.934-0.309,16.996-1.949,22.494-10.54
			c0.745-1.163,0.405-2.709-0.758-3.453c-1.163-0.744-2.708-0.405-3.453,0.758c-3.757,5.87-12.204,7.593-16.957,8.098
			c1.36-3.452,3.47-5.986,6.398-7.678c14.039-8.112,38.087-13.623,67.713-15.518c0.385-0.025,0.76-0.139,1.094-0.332
			c0.385-0.223,38.75-22.337,61.703-25.456c23.919-3.249,34.018-2.775,52.222,0.298c6.537,1.104,15.595,4.142,25.185,7.359
			c18.845,6.322,40.075,13.449,56.073,11.4l2.291,11.699c-7.559,0.238-16.072-2.937-16.167-2.973
			c-1.291-0.491-2.735,0.162-3.223,1.453c-0.489,1.291,0.16,2.733,1.451,3.222c0.413,0.157,8.837,3.31,17.13,3.31
			c0.595,0,1.188-0.026,1.778-0.061l2.339,11.945c0.133,0.631,3.097,15.508-11.764,19.361c-0.05,0.014-5.116,1.415-13.85,1.875
			c-1.379,0.073-2.438,1.249-2.365,2.628c0.073,1.378,1.24,2.434,2.628,2.365c9.354-0.493,14.726-1.993,14.895-2.042
			C287.647,114.764,288.906,100.528,287.403,93.617z M46.224,92.285c10.504,0,19.05,8.546,19.05,19.05s-8.546,19.05-19.05,19.05
			s-19.049-8.546-19.049-19.05S35.72,92.285,46.224,92.285z"/>
		<path fill="#212D61" d="M229.565,66.56c0.001-0.961-0.548-1.838-1.415-2.255c-25.932-12.502-49.586-14.369-61.378-14.369
			c-3.849,0-6.05,0.208-6.207,0.224c-40.21,4.931-65.449,25.087-66.464,27.553c-0.31,0.752-0.234,1.607,0.203,2.294
			c0.437,0.686,1.18,1.117,1.992,1.155c0.072,0.003,7.369,0.34,19.533,0.34c11.971,0,30.941-0.333,53.333-1.917
			c42.314-2.995,58.32-10.456,58.981-10.772C229.012,68.396,229.564,67.521,229.565,66.56z M168.811,74.596
			c-22.247,1.574-41.09,1.905-52.981,1.905c-5.118,0-9.36-0.06-12.552-0.129c8.573-6.085,28.214-17.609,57.83-21.242
			c0.021-0.002,2.083-0.194,5.665-0.194c10.522,0,30.852,1.545,53.679,11.354C212.737,68.687,196.495,72.636,168.811,74.596z"/>
		<path fill="#212D61" d="M106.801,107.355c-1.381,0-2.5,1.119-2.5,2.5s1.119,2.5,2.5,2.5h74.216c1.381,0,2.5-1.119,2.5-2.5
			s-1.119-2.5-2.5-2.5H106.801z"/>
		<path fill="#212D61" d="M156.172,20.089h75.147c1.381,0,2.5-1.119,2.5-2.5s-1.119-2.5-2.5-2.5h-75.147c-1.381,0-2.5,1.119-2.5,2.5
			S154.791,20.089,156.172,20.089z"/>
		<path fill="#212D61" d="M182.222,5h75.147c1.381,0,2.5-1.119,2.5-2.5s-1.119-2.5-2.5-2.5h-75.147c-1.381,0-2.5,1.119-2.5,2.5
			S180.841,5,182.222,5z"/>
		<path fill="#212D61" d="M265.114,5h13.069c1.381,0,2.5-1.119,2.5-2.5s-1.119-2.5-2.5-2.5h-13.069c-1.381,0-2.5,1.119-2.5,2.5
			S263.733,5,265.114,5z"/>
		<path fill="#212D61" d="M153.967,159.639H44.715c-1.381,0-2.5,1.119-2.5,2.5s1.119,2.5,2.5,2.5h109.252c1.381,0,2.5-1.119,2.5-2.5
			S155.347,159.639,153.967,159.639z"/>
		<path fill="#212D61" d="M198.944,145.34h-75.147c-1.381,0-2.5,1.119-2.5,2.5s1.119,2.5,2.5,2.5h75.147c1.381,0,2.5-1.119,2.5-2.5
			S200.325,145.34,198.944,145.34z"/>
	</g>
</g>
</svg>
