<?xml version="1.0" encoding="utf-8"?>
<!-- Generator: Adobe Illustrator 17.0.0, SVG Export Plug-In . SVG Version: 6.00 Build 0)  -->
<!DOCTYPE svg PUBLIC "-//W3C//DTD SVG 1.1//EN" "http://www.w3.org/Graphics/SVG/1.1/DTD/svg11.dtd">
<svg version="1.1" id="Warstwa_1" xmlns="http://www.w3.org/2000/svg" xmlns:xlink="http://www.w3.org/1999/xlink" x="0px" y="0px"
	 width="263.793px" height="174.804px" viewBox="0 0 263.793 174.804" enable-background="new 0 0 263.793 174.804"
	 xml:space="preserve">
<circle fill="#B8C5F4" cx="188.851" cy="98.944" r="48.98"/>
<g>
	<path fill="#212D61" d="M188.851,47.464c-28.386,0-51.48,23.094-51.48,51.48c0,28.386,23.094,51.479,51.48,51.479
		c28.386,0,51.479-23.094,51.479-51.479C240.331,70.558,217.237,47.464,188.851,47.464z M188.851,145.424
		c-25.629,0-46.48-20.851-46.48-46.479s20.851-46.48,46.48-46.48s46.479,20.851,46.479,46.48S214.48,145.424,188.851,145.424z"/>
	<path fill="#212D61" d="M198.3,62.895c-1.335-0.349-2.702,0.451-3.051,1.787c-0.349,1.336,0.451,2.702,1.787,3.051
		c14.174,3.706,24.074,16.54,24.074,31.211c0,0.679-0.021,1.361-0.063,2.028c-0.086,1.378,0.962,2.565,2.34,2.65
		c0.053,0.003,0.105,0.005,0.158,0.005c1.31,0,2.41-1.02,2.493-2.345c0.048-0.771,0.072-1.557,0.072-2.339
		C226.109,82,214.673,67.176,198.3,62.895z"/>
	<path fill="#212D61" d="M56.285,26.413c0.095-0.14,0.175-0.289,0.239-0.444l0.213-0.515c0.536-1.06,4.181-7.698,11.263-7.698
		h41.206h1.627h41.206c7.082,0,10.727,6.638,11.263,7.698l0.213,0.515c0.064,0.156,0.145,0.305,0.239,0.444l3.049,5.486
		c0.456,0.827,1.31,1.294,2.192,1.294c0.408,0,0.821-0.1,1.204-0.311c1.209-0.666,1.649-2.187,0.983-3.396l-2.959-5.37
		c-0.036-0.066-0.076-0.13-0.118-0.193l-0.216-0.462c-0.021-0.051-0.044-0.101-0.068-0.151c-0.869-1.762-5.715-10.554-15.781-10.554
		h-41.206h-1.627H68c-10.066,0-14.912,8.792-15.781,10.554c-0.024,0.05-0.047,0.1-0.068,0.151L52,23.824l-0.066,0.099
		c-0.042,0.063-0.082,0.127-0.118,0.193L37.084,50.852c-0.427,0.774-0.413,1.717,0.037,2.478s1.268,1.229,2.152,1.229h69.933h1.627
		H133.5c1.381,0,2.5-1.119,2.5-2.5s-1.119-2.5-2.5-2.5h-22.667h-1.627H43.505l12.635-22.93L56.285,26.413z"/>
	<path fill="#212D61" d="M133.5,140.667H80.93H31.667c-0.044,0-0.091,0.001-0.136,0.004c-0.121,0.003-12.027,0.583-18.331-4.312
		C4.999,129.991,5,122.941,5,114.015V78.833c0-0.081,0.063-8.169,5.564-13.45c6.04-5.798,15.439-11.338,15.533-11.394
		c0.388-0.228,0.708-0.556,0.925-0.95l18-32.667c0.034-0.062,0.066-0.125,0.095-0.19C45.185,20.031,52.058,5,68,5h41.206h1.627
		h41.206c15.859,0,22.606,14.568,22.883,15.183c0.029,0.064,0.061,0.128,0.095,0.19l5.859,10.634
		c0.456,0.827,1.31,1.294,2.192,1.294c0.408,0,0.821-0.1,1.204-0.311c1.209-0.666,1.649-2.187,0.983-3.396l-5.813-10.551
		C178.685,16.406,170.633,0,152.039,0h-41.206h-1.627H68c-0.001,0,0,0-0.001,0C49.408,0,41.354,16.406,40.598,18.043l-8.875,16.106
		c-2.114-3.498-5.183-4.868-7.694-5.366c-7.971-1.581-18.034,4.157-20.639,7.684c-1.851,2.507-2.55,4.986-2.079,7.369
		c0.498,2.516,2.267,4.708,5.259,6.518c2.704,1.635,7.895,2.166,12.281,2.299c-3.43,2.276-8.085,5.606-11.749,9.123
		C0.081,68.516,0,78.415,0,78.833v35.182c0,7.332,0.001,14.865,5.376,21.644c-0.024,0.139-0.043,0.279-0.043,0.425v16.538
		c-0.02,0.643,0.015,3.78,2.346,6.235c1.718,1.81,4.153,2.728,7.238,2.728h10h10c3.084,0,5.52-0.917,7.238-2.728
		c2.331-2.455,2.365-5.592,2.346-6.235v-6.954h36.43h52.57c1.381,0,2.5-1.119,2.5-2.5S134.88,140.667,133.5,140.667z M6.215,42.866
		c-0.188-0.946,0.215-2.1,1.196-3.428c1.701-2.303,9.901-6.891,15.646-5.75c2.875,0.569,4.702,2.549,5.586,6.05l-4.354,7.902
		c-5.353,0.172-12.838-0.178-15.131-1.565C7.962,45.353,6.481,44.209,6.215,42.866z M39.502,152.766c0,0.016,0.03,1.617-1,2.674
		c-0.739,0.758-1.946,1.143-3.586,1.143h-10h-10c-1.64,0-2.847-0.385-3.586-1.143c-1.025-1.052-1-2.644-1.001-2.644
		c0.002-0.043,0.003-0.086,0.003-0.129v-12.217c6.287,4.738,15.995,5.249,19.841,5.249c0.802,0,1.349-0.022,1.557-0.032h7.77
		L39.502,152.766z"/>
	<path fill="#212D61" d="M65.219,108.602c0.591-0.041,5.822-0.505,7.421-4.32c1.288-3.072,0.693-6.67-1.632-9.873
		c-0.083-0.115-0.176-0.222-0.277-0.321c-0.56-0.546-13.896-13.442-29.729-19.006c-0.036-0.013-0.072-0.024-0.109-0.036
		c-0.175-0.053-4.336-1.288-9.15-1.288c-9.406,0-15.082,4.849-15.572,13.305c-0.903,15.578,14.086,20.899,22.138,21.536
		c0.065,0.005,0.131,0.008,0.197,0.008h26.542C65.105,108.607,65.162,108.605,65.219,108.602z M38.617,103.607
		c-1.559-0.146-18.277-2.057-17.455-16.255c0.214-3.689,1.543-8.594,10.581-8.594c3.807,0,7.236,0.94,7.665,1.063
		c13.871,4.897,26.164,16.266,27.677,17.698c1.176,1.702,1.521,3.453,0.944,4.83c-0.244,0.582-1.837,1.144-3.084,1.258H38.617z"/>
	<path fill="#212D61" d="M121.5,105.583c0-1.381-1.119-2.5-2.5-2.5H84.583c-0.935,0-1.791,0.521-2.22,1.351
		c-0.43,0.83-0.36,1.83,0.179,2.592l13.083,18.5c0.468,0.663,1.229,1.057,2.041,1.057h26c1.381,0,2.5-1.119,2.5-2.5
		s-1.119-2.5-2.5-2.5H98.96l-9.547-13.5H119C120.381,108.083,121.5,106.964,121.5,105.583z"/>
	<path fill="#212D61" d="M50.688,134.008c0.169,0,0.297-0.004,0.379-0.008h19.738c0.006,0,0.012,0,0.02,0c1.381,0,2.5-1.119,2.5-2.5
		c0-0.649-0.248-1.241-0.653-1.685l-9.895-13.696c-0.47-0.651-1.224-1.036-2.026-1.036H45.333c-0.038,0-0.076,0.001-0.113,0.002
		c-0.326,0.015-3.232,0.217-5.057,2.716c-1.417,1.942-1.696,4.556-0.826,7.768C41.02,131.791,46.304,134.008,50.688,134.008z
		 M44.186,120.772c0.382-0.547,1.125-0.671,1.246-0.689h14.041L65.914,129H51c-0.044,0-0.107,0.002-0.152,0.004l-0.161,0.003
		c-1.576,0-5.366-0.462-6.524-4.745C43.728,122.656,43.736,121.417,44.186,120.772z"/>
	<path fill="#212D61" d="M259.774,151.301l-17.725-17.762c6.5-9.96,10.294-21.839,10.294-34.594
		c0-35.009-28.482-63.492-63.491-63.492s-63.492,28.482-63.492,63.492s28.482,63.491,63.492,63.491
		c12.299,0,23.785-3.526,33.521-9.605l17.898,17.935c2.687,2.692,6.219,4.039,9.752,4.039c3.523,0,7.047-1.339,9.732-4.019
		C265.131,165.419,265.14,156.678,259.774,151.301z M130.359,98.944c0-32.252,26.239-58.492,58.492-58.492
		c32.252,0,58.491,26.239,58.491,58.492c0,32.252-26.239,58.491-58.491,58.491C156.599,157.436,130.359,131.196,130.359,98.944z
		 M256.222,167.247c-3.426,3.418-8.995,3.412-12.413-0.013l-17.227-17.262c4.723-3.501,8.936-7.647,12.528-12.298l17.124,17.16
		C259.653,158.259,259.648,163.828,256.222,167.247z"/>
</g>
</svg>
