<?xml version="1.0" encoding="utf-8"?>
<!-- Generator: Adobe Illustrator 17.0.0, SVG Export Plug-In . SVG Version: 6.00 Build 0)  -->
<!DOCTYPE svg PUBLIC "-//W3C//DTD SVG 1.1//EN" "http://www.w3.org/Graphics/SVG/1.1/DTD/svg11.dtd">
<svg version="1.1" id="Warstwa_1" xmlns="http://www.w3.org/2000/svg" xmlns:xlink="http://www.w3.org/1999/xlink" x="0px" y="0px"
	 width="51.5px" height="42.689px" viewBox="0 0 51.5 42.689" enable-background="new 0 0 51.5 42.689" xml:space="preserve">
<path fill="#3F4271" d="M50.768,19.577L31.923,0.732c-0.976-0.977-2.56-0.977-3.535,0c-0.977,0.976-0.977,2.559,0,3.535
	l14.577,14.577H2.5c-1.381,0-2.5,1.119-2.5,2.5s1.119,2.5,2.5,2.5h40.464L28.388,38.421c-0.977,0.976-0.977,2.559,0,3.535
	c0.488,0.488,1.128,0.732,1.768,0.732s1.28-0.244,1.768-0.732l18.845-18.845c0.469-0.469,0.732-1.104,0.732-1.768
	S51.237,20.045,50.768,19.577z"/>
</svg>
