<?xml version="1.0" encoding="utf-8"?>
<!-- Generator: Adobe Illustrator 16.0.3, SVG Export Plug-In . SVG Version: 6.00 Build 0)  -->
<!DOCTYPE svg PUBLIC "-//W3C//DTD SVG 1.1//EN" "http://www.w3.org/Graphics/SVG/1.1/DTD/svg11.dtd">
<svg version="1.1" id="Layer_1" xmlns="http://www.w3.org/2000/svg" xmlns:xlink="http://www.w3.org/1999/xlink" x="0px" y="0px"
	 width="35.199px" height="25.597px" viewBox="0 0 35.199 25.597" enable-background="new 0 0 35.199 25.597" xml:space="preserve">
<g>
	<path fill="#C0C0C5" d="M34.398,0H0.801C0.359,0,0,0.355,0,0.801v24c0,0.44,0.359,0.796,0.801,0.796h33.598
		c0.441,0,0.801-0.355,0.801-0.796v-24C35.199,0.355,34.84,0,34.398,0 M33.602,22.062l-9.91-9.906l-1.133,1.129L33.273,24H1.93
		l10.711-10.715l-1.129-1.129l-9.91,9.906V1.597h32V22.062z"/>
	<path fill="#C0C0C5" d="M31.984,1.597L17.602,15.98L3.219,1.597H1.602v0.649l15.433,15.433c0.313,0.313,0.817,0.313,1.129,0
		L33.602,2.246V1.597H31.984z"/>
</g>
</svg>
