<?xml version="1.0" encoding="utf-8"?>
<!-- Generator: Adobe Illustrator 16.0.3, SVG Export Plug-In . SVG Version: 6.00 Build 0)  -->
<!DOCTYPE svg PUBLIC "-//W3C//DTD SVG 1.1//EN" "http://www.w3.org/Graphics/SVG/1.1/DTD/svg11.dtd">
<svg version="1.1" id="Layer_1" xmlns="http://www.w3.org/2000/svg" xmlns:xlink="http://www.w3.org/1999/xlink" x="0px" y="0px"
	 width="385.92px" height="387.84px" viewBox="0 0 385.92 387.84" enable-background="new 0 0 385.92 387.84" xml:space="preserve">
<g>
	<path fill="#C0C0C5" d="M78.672,257.44C116.75,302.96,162.59,338.8,214.91,364.159c19.922,9.441,46.563,20.641,76.242,22.563
		c1.84,0.078,3.598,0.156,5.438,0.156c19.922,0,35.922-6.879,48.961-21.039c0.082-0.078,0.242-0.238,0.32-0.398
		c4.641-5.602,9.922-10.641,15.44-16c3.759-3.602,7.599-7.359,11.278-11.199c17.043-17.762,17.043-40.32-0.16-57.52l-48.078-48.082
		c-8.16-8.48-17.922-12.961-28.16-12.961s-20.082,4.48-28.48,12.883l-28.641,28.637c-2.641-1.52-5.359-2.878-7.918-4.16
		c-3.199-1.598-6.16-3.117-8.801-4.797c-26.082-16.563-49.762-38.16-72.398-65.921c-11.441-14.481-19.121-26.641-24.48-39.04
		c7.519-6.8,14.558-13.921,21.359-20.878c2.398-2.481,4.879-4.961,7.359-7.442c8.641-8.64,13.282-18.64,13.282-28.801
		c0-10.16-4.563-20.16-13.282-28.8l-23.839-23.84c-2.801-2.797-5.442-5.52-8.161-8.321c-5.281-5.437-10.8-11.039-16.238-16.078
		C97.711,5.038,88.031,0.8,77.793,0.8c-10.16,0-19.922,4.238-28.481,12.398L19.391,43.12C8.512,53.999,2.352,67.198,1.07,82.48
		c-1.519,19.121,2,39.441,11.121,64C26.191,184.48,47.312,219.761,78.672,257.44 M20.59,84.159
		c0.961-10.64,5.043-19.519,12.722-27.199L63.07,27.198c4.641-4.476,9.762-6.796,14.723-6.796c4.879,0,9.84,2.32,14.398,6.957
		c5.36,4.961,10.399,10.16,15.84,15.679c2.719,2.801,5.52,5.602,8.321,8.481l23.839,23.84c4.961,4.961,7.52,10,7.52,14.961
		c0,4.96-2.559,10-7.52,14.96c-2.48,2.481-4.961,5.04-7.441,7.52c-7.438,7.52-14.398,14.641-22.078,21.441l-0.402,0.399
		c-6.637,6.64-5.598,12.961-4,17.762c0.082,0.238,0.16,0.398,0.242,0.636c6.16,14.801,14.718,28.883,28.078,45.684
		c24,29.599,49.281,52.559,77.121,70.238c3.441,2.238,7.121,4,10.559,5.762c3.203,1.599,6.16,3.117,8.801,4.797
		c0.32,0.16,0.563,0.32,0.883,0.48c2.637,1.359,5.199,2,7.758,2c6.398,0,10.559-4.078,11.922-5.438l29.918-29.922
		c4.641-4.641,9.68-7.121,14.641-7.121c6.078,0,11.039,3.762,14.16,7.121l48.238,48.16c9.602,9.602,9.52,20-0.238,30.16
		c-3.359,3.602-6.879,7.039-10.641,10.641c-5.602,5.438-11.441,11.039-16.719,17.359c-9.199,9.918-20.16,14.559-34.32,14.559
		c-1.36,0-2.801-0.078-4.16-0.16c-26.242-1.68-50.641-11.918-68.961-20.637c-49.758-24.082-93.442-58.242-129.68-101.602
		c-29.84-35.922-49.918-69.359-63.199-105.199C22.43,117.921,19.312,100.241,20.59,84.159"/>
</g>
</svg>
