<?xml version="1.0" encoding="utf-8"?>
<!-- Generator: Adobe Illustrator 17.0.0, SVG Export Plug-In . SVG Version: 6.00 Build 0)  -->
<!DOCTYPE svg PUBLIC "-//W3C//DTD SVG 1.1//EN" "http://www.w3.org/Graphics/SVG/1.1/DTD/svg11.dtd">
<svg version="1.1" id="Warstwa_1" xmlns="http://www.w3.org/2000/svg" xmlns:xlink="http://www.w3.org/1999/xlink" x="0px" y="0px"
	 width="522.975px" height="522.975px" viewBox="0 0 522.975 522.975" enable-background="new 0 0 522.975 522.975"
	 xml:space="preserve">
<g>
	<g>
		<defs>
			<rect id="SVGID_1_" x="108.097" y="157.349" width="325.511" height="208.278"/>
		</defs>
		<clipPath id="SVGID_2_">
			<use xlink:href="#SVGID_1_"  overflow="visible"/>
		</clipPath>
		<path clip-path="url(#SVGID_2_)" fill="#010202" d="M222.304,282.972h50.856c-8.927,25.238-33.104,43.334-61.409,43.125
			c-34.344-0.254-62.743-27.728-64.076-62.048c-1.429-36.788,28.085-67.172,64.561-67.172c16.678,0,31.898,6.355,43.372,16.768
			c2.718,2.467,6.855,2.483,9.528-0.033l18.679-17.58c2.921-2.75,2.932-7.393,0.019-10.152
			c-18.197-17.239-42.607-27.985-69.525-28.51C156.894,156.247,108.5,203.321,108.1,260.745
			c-0.403,57.855,46.375,104.881,104.136,104.881c55.548,0,100.926-43.493,103.965-98.281c0.081-0.687,0.134-23.902,0.134-23.902
			h-94.032c-3.854,0-6.978,3.124-6.978,6.978v25.572C215.325,279.848,218.45,282.972,222.304,282.972L222.304,282.972z"/>
	</g>
	<path fill="#010202" d="M402.508,245.765V220.78c0-3.378-2.738-6.115-6.115-6.115h-21.029c-3.378,0-6.115,2.738-6.115,6.115v24.985
		h-24.985c-3.378,0-6.115,2.738-6.115,6.115v21.029c0,3.378,2.738,6.115,6.115,6.115h24.985v24.985c0,3.378,2.738,6.115,6.115,6.115
		h21.029c3.378,0,6.115-2.738,6.115-6.115v-24.985h24.985c3.378,0,6.115-2.738,6.115-6.115v-21.029c0-3.378-2.738-6.115-6.115-6.115
		H402.508L402.508,245.765L402.508,245.765z"/>
</g>
<g>
	<path d="M261.487,522.975c-69.846,0-135.511-27.199-184.899-76.588S0,331.333,0,261.487S27.199,125.977,76.588,76.588
		S191.642,0,261.487,0s135.511,27.199,184.899,76.588s76.588,115.054,76.588,184.899s-27.199,135.511-76.588,184.899
		S331.333,522.975,261.487,522.975z M261.487,19C127.779,19,19,127.779,19,261.487s108.779,242.487,242.487,242.487
		s242.487-108.779,242.487-242.487S395.195,19,261.487,19z"/>
</g>
</svg>
