<?xml version="1.0" encoding="utf-8"?>
<!-- Generator: Adobe Illustrator 17.0.0, SVG Export Plug-In . SVG Version: 6.00 Build 0)  -->
<!DOCTYPE svg PUBLIC "-//W3C//DTD SVG 1.1//EN" "http://www.w3.org/Graphics/SVG/1.1/DTD/svg11.dtd">
<svg version="1.1" id="Warstwa_1" xmlns="http://www.w3.org/2000/svg" xmlns:xlink="http://www.w3.org/1999/xlink" x="0px" y="0px"
	 width="522.975px" height="522.975px" viewBox="0 0 522.975 522.975" enable-background="new 0 0 522.975 522.975"
	 xml:space="preserve">
<g>
	<path fill="#14120E" d="M446.485,174.037c-12.527,5.549-25.962,9.312-40.082,10.992c14.416-8.633,25.452-22.327,30.683-38.591
		c-13.523,7.992-28.451,13.799-44.355,16.946c-12.738-13.588-30.855-22.05-50.947-22.05c-38.551,0-69.806,31.256-69.806,69.785
		c0,5.465,0.616,10.802,1.808,15.904c-58.005-2.913-109.44-30.702-143.865-72.931c-6.019,10.292-9.442,22.283-9.442,35.084
		c0,24.219,12.333,45.588,31.044,58.089c-11.438-0.38-22.196-3.529-31.617-8.758v0.871c0,33.808,24.07,62.024,55.986,68.444
		c-5.848,1.575-12.013,2.446-18.393,2.446c-4.506,0-8.867-0.445-13.14-1.298c8.888,27.749,34.658,47.928,65.192,48.482
		c-23.877,18.711-53.988,29.831-86.688,29.831c-5.636,0-11.185-0.339-16.65-0.956c30.895,19.837,67.575,31.405,106.997,31.405
		c128.407,0,198.596-106.359,198.596-198.596l-0.236-9.037C425.285,200.316,437.148,188.027,446.485,174.037L446.485,174.037z
		 M446.485,174.037"/>
</g>
<g>
	<path d="M261.487,522.975c-69.846,0-135.511-27.199-184.899-76.588S0,331.333,0,261.487S27.199,125.977,76.588,76.588
		S191.642,0,261.487,0s135.511,27.199,184.899,76.588s76.588,115.054,76.588,184.899s-27.199,135.511-76.588,184.899
		S331.333,522.975,261.487,522.975z M261.487,19C127.779,19,19,127.779,19,261.487s108.779,242.487,242.487,242.487
		s242.487-108.779,242.487-242.487S395.195,19,261.487,19z"/>
</g>
</svg>
