<?xml version="1.0" encoding="utf-8"?>
<!-- Generator: Adobe Illustrator 17.0.0, SVG Export Plug-In . SVG Version: 6.00 Build 0)  -->
<!DOCTYPE svg PUBLIC "-//W3C//DTD SVG 1.1//EN" "http://www.w3.org/Graphics/SVG/1.1/DTD/svg11.dtd">
<svg version="1.1" id="Warstwa_1" xmlns="http://www.w3.org/2000/svg" xmlns:xlink="http://www.w3.org/1999/xlink" x="0px" y="0px"
	 width="800px" height="217.065px" viewBox="0 0 800 217.065" enable-background="new 0 0 800 217.065" xml:space="preserve">
<g>
	<linearGradient id="SVGID_1_" gradientUnits="userSpaceOnUse" x1="-8.472757e-005" y1="108.5326" x2="217.0649" y2="108.5326">
		<stop  offset="0" style="stop-color:#00BBAF"/>
		<stop  offset="1" style="stop-color:#00EDA5"/>
	</linearGradient>
	<path fill="url(#SVGID_1_)" d="M113.283,106.41l-18.37,67.261H51.818l20.131-73.714c9.201-33.445,32.799-51.076,58.806-51.076
		h68.436C179.778,19.441,146.433,0,108.532,0C48.592,0,0,48.592,0,108.532s48.592,108.533,108.532,108.533
		c44.27,0,82.323-26.52,99.208-64.527h-87.719l8.753-32.239h87.645c0.417-3.867,0.645-7.789,0.645-11.767
		c0-5.265-0.395-10.436-1.12-15.5h-86.788C122.433,93.033,115.312,99.033,113.283,106.41z"/>
</g>
<path fill="#FFFFFF" d="M322.253,151.02c-0.41,0.288-1.279,0.429-2.606,0.429h-14.108c-1.067,0-1.81-0.185-2.232-0.551
	c-0.422-0.366-0.544-1.04-0.367-2.021l10.978-60.61c0.532-2.938,1.464-5.754,2.795-8.448c1.331-2.694,3.141-5.101,5.436-7.224
	c2.291-2.123,5.103-3.817,8.439-5.081s7.307-1.898,11.924-1.898h38.863c1.154,0,1.85,0.205,2.087,0.61
	c0.237,0.41,0.25,1.186,0.043,2.328l-1.885,10.41c-0.192,1.06-0.518,1.772-0.987,2.143c-0.464,0.366-1.186,0.547-2.163,0.547
	h-34.471c-3.458,0-5.896,0.717-7.309,2.147c-1.412,1.426-2.316,3.242-2.716,5.447l-2.04,11.265h37.799
	c1.063,0,1.715,0.185,1.96,0.551s0.258,1.162,0.036,2.387l-1.93,10.655c-0.178,0.981-0.489,1.698-0.919,2.141
	c-0.44,0.449-1.146,0.674-2.119,0.674h-37.799l-5.788,31.958C322.965,150.024,322.655,150.736,322.253,151.02z"/>
<path fill="#FFFFFF" d="M392.492,149.492c-2.914-1.308-5.109-3.021-6.587-5.144s-2.331-4.529-2.552-7.224
	c-0.225-2.694-0.084-5.427,0.419-8.204l11-60.732c0.178-0.981,0.544-1.654,1.099-2.021c0.555-0.37,1.364-0.551,2.432-0.551h14.108
	c1.327,0,2.164,0.165,2.507,0.488c0.339,0.327,0.413,1.024,0.221,2.084l-10.602,58.535c-0.562,3.104-0.12,5.183,1.331,6.243
	c1.446,1.063,3.505,1.591,6.167,1.591h33.806c0.973,0,1.612,0.146,1.919,0.429c0.298,0.288,0.351,1,0.144,2.143l-2.128,11.749
	c-0.31,1.713-1.313,2.572-2.994,2.572h-38.465C399.345,151.449,395.403,150.796,392.492,149.492z"/>
<path fill="#FFFFFF" d="M625.487,82.445h-24.089l-12.022,66.371c-0.193,1.063-0.519,1.757-0.976,2.084
	c-0.461,0.327-1.353,0.488-2.684,0.488h-14.242c-1.063,0-1.81-0.185-2.228-0.551c-0.422-0.366-0.544-1.04-0.367-2.021l12.022-66.371
	h-23.557c-1.69,0-2.382-0.811-2.086-2.446l2.128-11.75c0.192-1.06,0.491-1.757,0.909-2.084c0.409-0.323,1.105-0.488,2.085-0.488
	h68.143c1.063,0,1.742,0.165,2.042,0.488c0.291,0.327,0.346,1.024,0.154,2.084l-2.128,11.75
	C628.296,81.633,627.259,82.445,625.487,82.445z"/>
<path fill="#FFFFFF" d="M692.19,150.776c-0.436,0.449-1.185,0.674-2.253,0.674h-39.395c-4.971,0-8.913-0.654-11.824-1.958
	c-2.914-1.308-5.109-3.021-6.587-5.144c-1.479-2.123-2.331-4.529-2.552-7.224c-0.225-2.694-0.084-5.427,0.419-8.204l7.363-40.653
	c0.532-2.938,1.487-5.754,2.862-8.448c1.374-2.694,3.208-5.101,5.503-7.224c2.291-2.123,5.103-3.817,8.439-5.081
	c3.333-1.264,7.264-1.898,11.79-1.898h38.197c1.067,0,1.716,0.205,1.953,0.61c0.237,0.41,0.25,1.186,0.043,2.328l-2.04,11.262
	c-0.192,1.06-0.498,1.772-0.92,2.143c-0.421,0.366-1.119,0.547-2.096,0.547h-33.806c-3.458,0-5.9,0.737-7.32,2.206
	c-1.42,1.469-2.32,3.265-2.705,5.388l-1.554,8.577h38.197c1.063,0,1.716,0.205,1.953,0.61c0.237,0.41,0.25,1.186,0.043,2.328
	l-1.73,9.551c-0.178,0.981-0.46,1.694-0.853,2.143c-0.393,0.449-1.122,0.674-2.186,0.674h-38.197l-2.426,13.392
	c-0.518,2.859-0.136,4.797,1.14,5.817c1.28,1.02,3.339,1.528,6.179,1.528h35.137c1.154,0,1.853,0.185,2.098,0.551
	c0.245,0.366,0.254,1.166,0.032,2.387l-1.988,10.974C692.932,149.614,692.626,150.327,692.19,150.776z"/>
<g>
	<path fill="#FFFFFF" d="M508.745,64.608c-24.259,0-47.487,19.666-51.881,43.925c-4.394,24.259,11.71,43.925,35.969,43.925
		s47.487-19.666,51.881-43.925C549.108,84.273,533.004,64.608,508.745,64.608z M495.908,133.629
		c-13.86,0-23.061-11.236-20.551-25.096c2.51-13.86,15.781-25.096,29.642-25.096c13.86,0,23.061,11.236,20.55,25.096
		C523.039,122.393,509.768,133.629,495.908,133.629z"/>
</g>
<g>
	<g>
		<path fill="#FFFFFF" d="M512.035,108.533c-1.583,8.738-7.447,16.426-15.035,20.92c11.08-0.743,21.422-9.791,23.438-20.921
			c2.016-11.128-5.049-20.176-15.859-20.919C510.538,92.107,513.617,99.794,512.035,108.533z"/>
	</g>
</g>
<g>
	<path fill="#FFFFFF" d="M763.779,64.608c-24.259,0-47.487,19.666-51.881,43.925c-4.394,24.259,11.71,43.925,35.969,43.925
		s47.487-19.666,51.881-43.925C804.142,84.273,788.038,64.608,763.779,64.608z M750.941,133.629
		c-13.86,0-23.061-11.236-20.551-25.096c2.51-13.86,15.781-25.096,29.642-25.096c13.86,0,23.061,11.236,20.55,25.096
		C778.073,122.393,764.802,133.629,750.941,133.629z"/>
</g>
<g>
	<g>
		<path fill="#FFFFFF" d="M767.069,108.533c-1.583,8.738-7.447,16.426-15.035,20.92c11.08-0.743,21.422-9.791,23.438-20.921
			c2.016-11.128-5.049-20.176-15.859-20.919C765.572,92.107,768.651,99.794,767.069,108.533z"/>
	</g>
</g>
</svg>
